<svg width="513" height="513" viewBox="0 0 513 513" fill="none" xmlns="http://www.w3.org/2000/svg">
<rect x="0.638672" y="0.0158691" width="512" height="512" rx="100" fill="white"/>
<path d="M293.441 56.9573C291.71 55.0322 288.517 56.257 288.517 58.8463V104.237L187.814 104.237V104.322C187.31 104.345 186.806 104.372 186.303 104.404C160.072 106.067 137.177 120.009 123.302 140.547C117.006 149.866 112.567 160.544 110.517 172.049C109.676 176.77 109.237 181.63 109.237 186.592C109.237 187.569 109.254 188.542 109.288 189.511C109.294 189.681 109.3 189.851 109.307 190.02C109.318 190.29 109.331 190.56 109.344 190.83C110.198 207.664 116.106 223.164 125.581 235.843C128.583 239.86 131.943 243.594 135.613 246.997L193.826 311.718C195.166 313.207 197.074 314.057 199.077 314.057H277.627C281.295 314.057 283.23 309.714 280.777 306.987L178.282 193.033C177.338 191.086 176.809 188.901 176.809 186.592C176.809 179.474 181.84 173.53 188.541 172.124L188.577 172.049L387.441 172.049C391.109 172.049 393.044 167.705 390.592 164.978L335.958 104.237L335.967 104.237L293.441 56.9573Z" fill="#111111"/>
<path d="M219.836 455.074C221.567 457 224.76 455.775 224.76 453.185L224.76 407.795L325.463 407.795V407.71C352.324 406.497 375.834 392.416 389.975 371.485C396.271 362.165 400.71 351.487 402.76 339.983C403.601 335.262 404.04 330.402 404.04 325.44C404.04 324.462 404.023 323.489 403.989 322.52C403.983 322.351 403.977 322.181 403.97 322.012C403.959 321.741 403.946 321.471 403.933 321.202C403.079 304.368 397.171 288.868 387.696 276.189C384.695 272.172 381.335 268.438 377.664 265.035L319.451 200.314C318.111 198.825 316.203 197.974 314.2 197.974L235.65 197.974C231.982 197.974 230.047 202.318 232.5 205.045L334.995 318.999C335.939 320.945 336.468 323.131 336.468 325.44C336.468 332.558 331.437 338.501 324.736 339.908L324.7 339.983L125.836 339.983C122.168 339.983 120.233 344.326 122.685 347.053L177.319 407.795L177.31 407.795L219.836 455.074Z" fill="#111111"/>
<path fill-rule="evenodd" clip-rule="evenodd" d="M298.157 113.877L189.917 113.877L188.249 113.953C187.803 113.973 187.357 113.997 186.913 114.025C163.776 115.492 143.557 127.786 131.291 145.943C125.731 154.173 121.816 163.593 120.008 173.74C119.266 177.905 118.878 182.199 118.878 186.592C118.878 187.457 118.893 188.319 118.923 189.176C118.928 189.326 118.934 189.476 118.94 189.626C118.949 189.865 118.96 190.104 118.972 190.342C119.726 205.203 124.936 218.876 133.303 230.072C135.955 233.621 138.924 236.92 142.168 239.928L142.488 240.225L200.226 304.417H265.5L170.203 198.466L169.608 197.239C168.042 194.01 167.169 190.389 167.169 186.592C167.169 176.653 173.099 168.115 181.609 164.298L182.52 162.409L375.314 162.409L314.25 94.5179L314.259 94.518L298.157 76.6158V113.877ZM335.967 104.237L335.958 104.237L390.592 164.978C393.044 167.705 391.109 172.049 387.441 172.049L188.577 172.049L188.541 172.124C181.84 173.53 176.809 179.474 176.809 186.592C176.809 188.901 177.338 191.086 178.282 193.033L280.777 306.987C283.23 309.714 281.295 314.057 277.627 314.057H199.077C197.074 314.057 195.166 313.207 193.826 311.718L135.613 246.997C131.943 243.594 128.583 239.86 125.581 235.843C116.106 223.164 110.198 207.664 109.344 190.83C109.331 190.56 109.318 190.29 109.307 190.02C109.3 189.851 109.294 189.681 109.288 189.511C109.254 188.542 109.237 187.569 109.237 186.592C109.237 181.63 109.676 176.77 110.517 172.049C112.567 160.544 117.006 149.866 123.302 140.547C137.177 120.009 160.072 106.067 186.303 104.404C186.806 104.372 187.31 104.345 187.814 104.322V104.237L288.517 104.237V58.8463C288.517 56.257 291.71 55.0322 293.441 56.9573L335.967 104.237ZM215.12 398.154L323.36 398.154L325.028 398.079C348.725 397.009 369.485 384.593 381.987 366.088C387.546 357.859 391.461 348.438 393.269 338.292C394.011 334.127 394.399 329.833 394.399 325.44C394.399 324.574 394.384 323.713 394.354 322.856C394.352 322.773 394.349 322.691 394.345 322.609C394.343 322.541 394.34 322.474 394.337 322.406C394.328 322.167 394.317 321.928 394.305 321.69C393.551 306.828 388.341 293.156 379.974 281.96C377.322 278.411 374.353 275.112 371.109 272.104L370.789 271.807L313.051 207.615L247.777 207.615L343.074 313.566L343.669 314.793C345.235 318.022 346.108 321.643 346.108 325.44C346.108 335.379 340.178 343.917 331.667 347.734L330.757 349.623L137.963 349.623L199.037 417.525L199.028 417.525L215.12 435.416L215.12 398.154ZM177.319 407.804L177.314 407.799L177.31 407.795L177.319 407.795L177.315 407.79L177.31 407.785L122.685 347.053C120.233 344.326 122.168 339.983 125.836 339.983L324.7 339.983L324.736 339.908C331.437 338.501 336.468 332.558 336.468 325.44C336.468 323.131 335.939 320.945 334.995 318.999L232.5 205.045C230.047 202.318 231.982 197.974 235.65 197.974L314.2 197.974C316.203 197.974 318.111 198.825 319.451 200.314L377.664 265.035C381.335 268.438 384.695 272.172 387.696 276.189C397.171 288.868 403.079 304.368 403.933 321.202C403.946 321.471 403.959 321.741 403.97 322.012L403.981 322.297L403.989 322.52C404.023 323.489 404.04 324.462 404.04 325.44C404.04 330.402 403.601 335.262 402.76 339.983C400.71 351.487 396.271 362.165 389.975 371.485C375.834 392.416 352.324 406.497 325.463 407.71V407.795L224.76 407.795L224.76 453.185C224.76 455.775 221.567 457 219.836 455.074L177.319 407.804Z" fill="white"/>
</svg>
