<svg width="512" height="512" viewBox="0 0 512 512" fill="none" xmlns="http://www.w3.org/2000/svg">
<rect width="512" height="512" rx="100" fill="white"/>
<path d="M283.602 106.706C282.304 105.262 279.909 106.181 279.909 108.123V142.166L204.382 142.166V142.23C204.003 142.247 203.626 142.267 203.249 142.291C183.576 143.538 166.404 153.995 155.998 169.398C151.276 176.388 147.947 184.396 146.409 193.025C145.778 196.565 145.449 200.21 145.449 203.932C145.449 204.665 145.462 205.395 145.487 206.122C145.492 206.249 145.497 206.376 145.502 206.503C145.51 206.706 145.519 206.908 145.53 207.111C146.17 219.736 150.6 231.361 157.707 240.87C159.958 243.883 162.478 246.683 165.231 249.236L208.891 297.777C209.895 298.893 211.327 299.531 212.829 299.531H271.741C274.492 299.531 275.944 296.273 274.104 294.228L197.233 208.763C196.525 207.303 196.128 205.664 196.128 203.932C196.128 198.593 199.901 194.136 204.927 193.081L204.954 193.025L354.102 193.025C356.853 193.025 358.304 189.767 356.465 187.722L315.49 142.166L315.497 142.166L283.602 106.706Z" fill="#111111"/>
<path d="M228.398 405.294C229.697 406.738 232.092 405.819 232.092 403.877L232.092 369.834L307.618 369.834V369.77C327.764 368.861 345.397 358.3 356.002 342.602C360.725 335.612 364.054 327.604 365.591 318.975C366.222 315.435 366.551 311.79 366.551 308.068C366.551 307.335 366.538 306.605 366.513 305.878C366.509 305.751 366.504 305.624 366.499 305.497C366.49 305.294 366.481 305.092 366.471 304.889C365.831 292.264 361.4 280.639 354.294 271.13C352.042 268.117 349.522 265.317 346.769 262.764L303.109 214.223C302.105 213.107 300.673 212.469 299.171 212.469L240.259 212.469C237.508 212.469 236.057 215.727 237.896 217.772L314.767 303.237C315.475 304.697 315.872 306.336 315.872 308.068C315.872 313.407 312.099 317.864 307.073 318.919L307.046 318.975L157.898 318.975C155.147 318.975 153.696 322.233 155.535 324.278L196.51 369.834L196.504 369.834L228.398 405.294Z" fill="#111111"/>
<path fill-rule="evenodd" clip-rule="evenodd" d="M287.139 149.396L205.959 149.396L204.708 149.453C204.373 149.468 204.039 149.486 203.706 149.507C186.353 150.607 171.189 159.828 161.989 173.446C157.819 179.618 154.883 186.683 153.527 194.293C152.971 197.417 152.68 200.637 152.68 203.932C152.68 204.581 152.691 205.227 152.713 205.87C152.717 205.982 152.721 206.095 152.726 206.207C152.733 206.387 152.742 206.566 152.751 206.745C153.316 217.891 157.223 228.145 163.498 236.542C165.487 239.204 167.714 241.678 170.147 243.934L170.387 244.157L213.691 292.301H262.646L191.173 212.838L190.727 211.917C189.553 209.495 188.898 206.78 188.898 203.932C188.898 196.478 193.345 190.074 199.728 187.212L200.411 185.795L345.007 185.795L299.209 134.877L299.215 134.877L287.139 121.45V149.396ZM315.497 142.166L315.49 142.166L356.465 187.722C358.304 189.767 356.853 193.025 354.102 193.025L204.954 193.025L204.927 193.081C199.901 194.136 196.128 198.593 196.128 203.932C196.128 205.664 196.525 207.303 197.233 208.763L274.104 294.228C275.944 296.273 274.492 299.531 271.741 299.531H212.829C211.327 299.531 209.895 298.893 208.891 297.777L165.231 249.236C162.478 246.683 159.958 243.883 157.707 240.87C150.6 231.361 146.17 219.736 145.53 207.111C145.519 206.908 145.51 206.706 145.502 206.503C145.497 206.376 145.492 206.249 145.487 206.122C145.462 205.395 145.449 204.665 145.449 203.932C145.449 200.21 145.778 196.565 146.409 193.025C147.947 184.396 151.276 176.388 155.998 169.398C166.404 153.995 183.576 143.538 203.249 142.291C203.626 142.267 204.003 142.247 204.382 142.23V142.166L279.909 142.166V108.123C279.909 106.181 282.304 105.262 283.602 106.706L315.497 142.166ZM224.861 362.604L306.041 362.604L307.292 362.547C325.065 361.745 340.635 352.433 350.011 338.554C354.181 332.382 357.117 325.317 358.473 317.707C359.029 314.583 359.321 311.363 359.321 308.068C359.321 307.419 359.309 306.773 359.287 306.13C359.285 306.068 359.283 306.006 359.28 305.945C359.278 305.894 359.276 305.843 359.274 305.793C359.267 305.614 359.259 305.434 359.25 305.255C358.685 294.109 354.777 283.855 348.502 275.458C346.513 272.796 344.286 270.322 341.853 268.066L341.613 267.843L298.31 219.699L249.354 219.699L320.827 299.162L321.273 300.083C322.448 302.505 323.103 305.22 323.103 308.068C323.103 315.522 318.655 321.926 312.272 324.788L311.589 326.205L166.994 326.205L212.799 377.132L212.792 377.132L224.861 390.55L224.861 362.604ZM196.51 369.841L196.507 369.837L196.504 369.834L196.51 369.834L196.507 369.831L196.504 369.827L155.535 324.278C153.696 322.233 155.147 318.975 157.898 318.975L307.046 318.975L307.073 318.919C312.099 317.864 315.872 313.407 315.872 308.068C315.872 306.336 315.475 304.697 314.767 303.237L237.896 217.772C236.057 215.727 237.508 212.469 240.259 212.469L299.171 212.469C300.673 212.469 302.105 213.107 303.109 214.223L346.769 262.764C349.522 265.317 352.042 268.117 354.294 271.13C361.4 280.639 365.831 292.264 366.471 304.889C366.481 305.092 366.49 305.294 366.499 305.497L366.507 305.711L366.513 305.878C366.538 306.605 366.551 307.335 366.551 308.068C366.551 311.79 366.222 315.435 365.591 318.975C364.054 327.604 360.725 335.612 356.002 342.602C345.397 358.3 327.764 368.861 307.618 369.77V369.834L232.092 369.834L232.092 403.877C232.092 405.819 229.697 406.738 228.398 405.294L196.51 369.841Z" fill="white"/>
</svg>
