<svg width="1888" height="301" viewBox="0 0 1888 301" fill="none" xmlns="http://www.w3.org/2000/svg">
<path d="M152.183 0.0449219V30.867H59.384C12.6525 28.8789 -21.1688 88.1835 17.9571 131.951C57.083 175.719 70.3219 189.95 70.3219 189.95H124.344L45.4646 102.455C36.9802 93.1749 45.1335 71.9639 59.384 71.9639H216.81L152.183 0.0449219Z" fill="white"/>
<path d="M82.9383 300.046L82.9383 269.224L175.737 269.224C222.469 271.212 256.29 211.907 217.164 168.139C178.038 124.372 164.799 110.14 164.799 110.14L110.778 110.14L189.656 197.636C198.141 206.916 189.988 228.127 175.737 228.127L18.3114 228.127L82.9383 300.046Z" fill="white"/>
<path d="M370.323 282.555C346.669 282.555 327.842 277.004 313.843 265.901C299.844 254.798 291.879 240.075 289.948 221.731H329.411C330.859 230.179 335.083 237.058 342.083 242.368C349.324 247.678 358.858 250.333 370.685 250.333C382.029 250.333 390.718 248.04 396.752 243.454C403.028 238.627 406.166 233.075 406.166 226.8C406.166 217.628 402.424 211.352 394.942 207.973C387.701 204.594 376.96 202.06 362.72 200.37C350.41 198.922 339.186 196.146 329.049 192.043C319.153 187.698 311.309 181.906 305.516 174.665C299.723 167.182 296.827 157.89 296.827 146.787C296.827 131.098 302.982 118.426 315.291 108.772C327.601 99.1169 344.738 94.2896 366.702 94.2896C388.667 94.2896 405.683 99.2376 417.751 109.134C429.819 119.03 436.819 132.546 438.75 149.683H401.821C400.856 142.442 397.114 136.77 390.597 132.667C384.081 128.322 375.995 126.15 366.34 126.15C356.444 126.15 348.6 128.081 342.807 131.943C337.014 135.563 334.118 140.391 334.118 146.425C334.118 159.458 348.117 167.424 376.115 170.32C389.391 171.768 401.218 174.302 411.596 177.923C421.975 181.302 430.182 186.733 436.216 194.215C442.25 201.456 445.267 211.714 445.267 224.989C445.508 235.851 442.371 245.626 435.854 254.315C429.578 263.005 420.768 269.883 409.424 274.952C398.321 280.021 385.287 282.555 370.323 282.555Z" fill="white"/>
<path d="M533.828 282.555C512.105 282.555 495.571 275.918 484.227 262.643C473.124 249.126 467.573 229.575 467.573 203.991V98.6342H505.95V199.284C505.95 214.007 509.088 225.593 515.363 234.041C521.88 242.247 531.776 246.35 545.051 246.35C558.326 246.35 569.429 241.885 578.36 232.954C587.29 224.024 591.755 211.111 591.755 194.215V98.6342H630.133V278.211H596.824L593.566 251.419H591.755C586.928 260.108 579.446 267.47 569.308 273.504C559.171 279.538 547.344 282.555 533.828 282.555Z" fill="white"/>
<path d="M740.416 282.555C727.141 282.555 715.918 279.9 706.746 274.59C697.815 269.039 690.936 261.436 686.109 251.781H683.937L680.678 278.211H647.732V17.5352H686.109V121.805C690.453 114.564 697.332 108.168 706.746 102.617C716.159 97.0653 727.383 94.2896 740.416 94.2896C755.381 94.2896 768.777 97.9101 780.604 105.151C792.431 112.151 801.723 122.65 808.482 136.649C815.481 150.649 818.981 167.906 818.981 188.422C818.981 208.939 815.481 226.196 808.482 240.195C801.723 254.195 792.431 264.815 780.604 272.056C768.777 279.055 755.381 282.555 740.416 282.555ZM732.451 245.988C746.209 245.988 757.553 241.282 766.484 231.868C775.656 222.214 780.242 207.852 780.242 188.784C780.242 169.475 775.656 154.993 766.484 145.339C757.553 135.684 746.209 130.857 732.451 130.857C718.693 130.857 707.228 135.684 698.057 145.339C689.126 154.752 684.661 169.113 684.661 188.422C684.661 207.49 689.126 221.852 698.057 231.506C707.228 241.161 718.693 245.988 732.451 245.988Z" fill="white"/>
<path d="M912.972 282.555C889.318 282.555 870.492 277.004 856.493 265.901C842.493 254.798 834.528 240.075 832.597 221.731H872.061C873.509 230.179 877.733 237.058 884.733 242.368C891.974 247.678 901.507 250.333 913.334 250.333C924.679 250.333 933.368 248.04 939.402 243.454C945.677 238.627 948.815 233.075 948.815 226.8C948.815 217.628 945.074 211.352 937.592 207.973C930.351 204.594 919.61 202.06 905.369 200.37C893.06 198.922 881.836 196.146 871.699 192.043C861.803 187.698 853.958 181.906 848.166 174.665C842.373 167.182 839.476 157.89 839.476 146.787C839.476 131.098 845.631 118.426 857.941 108.772C870.251 99.1169 887.388 94.2896 909.352 94.2896C931.316 94.2896 948.333 99.2376 960.401 109.134C972.469 119.03 979.469 132.546 981.4 149.683H944.471C943.505 142.442 939.764 136.77 933.247 132.667C926.73 128.322 918.644 126.15 908.99 126.15C899.094 126.15 891.249 128.081 885.457 131.943C879.664 135.563 876.767 140.391 876.767 146.425C876.767 159.458 890.767 167.424 918.765 170.32C932.04 171.768 943.867 174.302 954.246 177.923C964.625 181.302 972.831 186.733 978.865 194.215C984.899 201.456 987.917 211.714 987.917 224.989C988.158 235.851 985.02 245.626 978.503 254.315C972.228 263.005 963.418 269.883 952.074 274.952C940.971 280.021 927.937 282.555 912.972 282.555Z" fill="white"/>
<path d="M1111.96 278.211C1094.34 278.211 1080.34 273.987 1069.96 265.539C1059.58 256.85 1054.39 241.523 1054.39 219.559V131.219H1009.14V98.6342H1035.93C1048.24 98.6342 1055.48 92.6 1057.65 80.5317L1063.08 51.5678H1092.77V98.6342H1163.73V131.219H1092.77V218.835C1092.77 228.248 1094.82 234.885 1098.92 238.747C1103.27 242.368 1110.63 244.178 1121.01 244.178H1163.01V278.211H1111.96Z" fill="white"/>
<path d="M1192.55 278.211V244.902H1236.36V143.89C1236.36 135.925 1232.5 131.943 1224.78 131.943H1196.17V98.6342H1239.26C1249.15 98.6342 1257.24 101.531 1263.52 107.323C1269.79 112.875 1272.93 120.719 1272.93 130.857V135.201H1274.74C1277.39 121.685 1283.07 111.547 1291.76 104.789C1300.69 97.7894 1313.6 94.2896 1330.49 94.2896H1358.37V134.839H1319.27C1305.03 134.839 1294.05 139.787 1286.32 149.683C1278.6 159.579 1274.74 171.406 1274.74 185.164V244.902H1330.49V278.211H1192.55Z" fill="white"/>
<path d="M1438.24 282.555C1416.52 282.555 1399.99 275.918 1388.64 262.643C1377.54 249.126 1371.99 229.575 1371.99 203.991V98.6342H1410.37V199.284C1410.37 214.007 1413.5 225.593 1419.78 234.041C1426.3 242.247 1436.19 246.35 1449.47 246.35C1462.74 246.35 1473.85 241.885 1482.78 232.954C1491.71 224.024 1496.17 211.111 1496.17 194.215V98.6342H1534.55V278.211H1501.24L1497.98 251.419H1496.17C1491.34 260.108 1483.86 267.47 1473.72 273.504C1463.59 279.538 1451.76 282.555 1438.24 282.555Z" fill="white"/>
<path d="M1637.59 282.555C1620.94 282.555 1605.97 278.693 1592.7 270.97C1579.66 263.246 1569.41 252.384 1561.92 238.385C1554.44 224.145 1550.7 207.49 1550.7 188.422C1550.7 169.354 1554.44 152.821 1561.92 138.822C1569.65 124.822 1580.03 113.961 1593.06 106.237C1606.09 98.2721 1620.94 94.2896 1637.59 94.2896C1660.52 94.2896 1678.99 100.082 1692.98 111.668C1707.23 123.012 1716.28 138.701 1720.14 158.734H1679.95C1677.54 150.045 1672.59 143.166 1665.11 138.098C1657.87 133.029 1648.57 130.495 1637.23 130.495C1629.02 130.495 1621.18 132.667 1613.7 137.011C1606.46 141.356 1600.54 147.873 1595.96 156.562C1591.61 165.01 1589.44 175.63 1589.44 188.422C1589.44 200.973 1591.61 211.594 1595.96 220.283C1600.54 228.972 1606.46 235.609 1613.7 240.195C1621.18 244.54 1629.02 246.712 1637.23 246.712C1648.81 246.712 1658.11 244.178 1665.11 239.109C1672.11 234.041 1677.05 227.041 1679.95 218.11H1720.14C1715.31 237.902 1705.9 253.591 1691.9 265.177C1677.9 276.762 1659.8 282.555 1637.59 282.555Z" fill="white"/>
<path d="M1835.49 278.211C1817.87 278.211 1803.87 273.987 1793.49 265.539C1783.11 256.85 1777.93 241.523 1777.93 219.559V131.219H1732.67V98.6342H1759.46C1771.77 98.6342 1779.01 92.6 1781.18 80.5317L1786.61 51.5678H1816.3V98.6342H1887.26V131.219H1816.3V218.835C1816.3 228.248 1818.35 234.885 1822.46 238.747C1826.8 242.368 1834.16 244.178 1844.54 244.178H1886.54V278.211H1835.49Z" fill="white"/>
</svg>
