<svg width="971" height="166" viewBox="0 0 971 166" fill="none" xmlns="http://www.w3.org/2000/svg">
<path d="M77.206 22.508H74.706L33.7612 22.508L33.0354 22.5407C32.8411 22.5495 32.6472 22.56 32.4538 22.5723M77.206 22.508L32.4538 22.5723M77.206 22.508V20.008V4.63659L88.7648 17.4876L88.7611 17.4875L92.5318 21.6798L114.087 45.6445L33.239 45.6445H31.6682L31.4508 46.0958C28.1823 47.3256 25.8563 50.4783 25.8563 54.1788C25.8563 55.5227 26.1651 56.8016 26.718 57.942L26.8723 58.2602L27.1088 58.5232L68.5225 104.567M77.206 22.508L68.5225 104.567M32.4538 22.5723C22.3722 23.2113 13.5666 28.569 8.22673 36.4731C5.80523 40.0574 4.09948 44.1617 3.31169 48.583C2.98836 50.3977 2.81934 52.2674 2.81934 54.1788C2.81934 54.5552 2.82589 54.93 2.83889 55.303C2.84116 55.3683 2.84364 55.4336 2.84631 55.4988C2.85057 55.6029 2.85533 55.7068 2.86059 55.8106C3.18872 62.2838 5.45914 68.2411 9.10313 73.1174C10.2579 74.6626 11.5507 76.0993 12.963 77.4087L13.0461 77.4858L13.122 77.5701L37.2758 104.424C37.3574 104.515 37.4737 104.567 37.5956 104.567H68.5225M32.4538 22.5723L68.5225 104.567M48.2523 143.46H45.7523V145.96L45.7523 161.332L34.1962 148.484L34.1999 148.484L30.4265 144.288L8.8716 120.324L89.7193 120.324H91.2901L91.5074 119.872C94.776 118.643 97.1021 115.49 97.1021 111.789C97.1021 110.446 96.7932 109.167 96.2403 108.026L96.086 107.708L95.8495 107.445L54.4359 61.4015L85.3627 61.4015C85.4847 61.4015 85.6009 61.4533 85.6825 61.544L109.836 88.3981L109.912 88.4824L109.995 88.5595C111.408 89.869 112.7 91.3056 113.855 92.8508C117.499 97.7271 119.77 103.684 120.098 110.157C120.101 110.219 120.104 110.28 120.106 110.341C120.108 110.384 120.11 110.427 120.112 110.469C120.115 110.535 120.117 110.6 120.119 110.665L120.119 110.665C120.132 111.038 120.139 111.413 120.139 111.789C120.139 113.701 119.97 115.571 119.647 117.385C118.859 121.807 117.153 125.911 114.732 129.495C109.289 137.551 100.248 142.961 89.9229 143.427L89.197 143.46L48.2523 143.46Z" fill="white" stroke="#111111" stroke-width="5"/>
<path d="M197.359 148.144C185.599 148.144 176.239 145.384 169.279 139.864C162.319 134.344 158.359 127.024 157.399 117.904H177.019C177.739 122.104 179.839 125.524 183.319 128.164C186.919 130.804 191.659 132.124 197.539 132.124C203.179 132.124 207.499 130.984 210.499 128.704C213.619 126.304 215.179 123.544 215.179 120.424C215.179 115.864 213.319 112.744 209.599 111.064C205.999 109.384 200.659 108.124 193.579 107.284C187.459 106.564 181.879 105.184 176.839 103.144C171.919 100.984 168.019 98.1041 165.139 94.5041C162.259 90.7841 160.819 86.1641 160.819 80.6441C160.819 72.8441 163.879 66.5441 169.999 61.7441C176.119 56.9441 184.639 54.5441 195.559 54.5441C206.479 54.5441 214.939 57.0041 220.939 61.9241C226.939 66.8441 230.419 73.5641 231.379 82.0841H213.019C212.539 78.4841 210.679 75.6641 207.439 73.6241C204.199 71.4641 200.179 70.3841 195.379 70.3841C190.459 70.3841 186.559 71.3441 183.679 73.2641C180.799 75.0641 179.359 77.4641 179.359 80.4641C179.359 86.9441 186.319 90.9041 200.239 92.3441C206.839 93.0641 212.719 94.3241 217.879 96.1241C223.039 97.8041 227.119 100.504 230.119 104.224C233.119 107.824 234.619 112.924 234.619 119.524C234.739 124.924 233.179 129.784 229.939 134.104C226.819 138.424 222.439 141.844 216.799 144.364C211.279 146.884 204.799 148.144 197.359 148.144ZM278.649 148.144C267.849 148.144 259.629 144.844 253.989 138.244C248.469 131.524 245.709 121.804 245.709 109.084V56.7041H264.789V106.744C264.789 114.064 266.349 119.824 269.469 124.024C272.709 128.104 277.629 130.144 284.229 130.144C290.829 130.144 296.349 127.924 300.789 123.484C305.229 119.044 307.449 112.624 307.449 104.224V56.7041H326.529V145.984H309.969L308.349 132.664H307.449C305.049 136.984 301.329 140.644 296.289 143.644C291.249 146.644 285.369 148.144 278.649 148.144ZM381.359 148.144C374.759 148.144 369.179 146.824 364.619 144.184C360.179 141.424 356.759 137.644 354.359 132.844H353.279L351.659 145.984H335.279V16.3841H354.359V68.2241C356.519 64.6241 359.939 61.4441 364.619 58.6841C369.299 55.9241 374.879 54.5441 381.359 54.5441C388.799 54.5441 395.459 56.3441 401.339 59.9441C407.219 63.4241 411.839 68.6441 415.199 75.6041C418.679 82.5641 420.419 91.1441 420.419 101.344C420.419 111.544 418.679 120.124 415.199 127.084C411.839 134.044 407.219 139.324 401.339 142.924C395.459 146.404 388.799 148.144 381.359 148.144ZM377.399 129.964C384.239 129.964 389.879 127.624 394.319 122.944C398.879 118.144 401.159 111.004 401.159 101.524C401.159 91.9241 398.879 84.7241 394.319 79.9241C389.879 75.1241 384.239 72.7241 377.399 72.7241C370.559 72.7241 364.859 75.1241 360.299 79.9241C355.859 84.6041 353.639 91.7441 353.639 101.344C353.639 110.824 355.859 117.964 360.299 122.764C364.859 127.564 370.559 129.964 377.399 129.964ZM467.148 148.144C455.388 148.144 446.028 145.384 439.068 139.864C432.108 134.344 428.148 127.024 427.188 117.904H446.808C447.528 122.104 449.628 125.524 453.108 128.164C456.708 130.804 461.448 132.124 467.328 132.124C472.968 132.124 477.288 130.984 480.288 128.704C483.408 126.304 484.968 123.544 484.968 120.424C484.968 115.864 483.108 112.744 479.388 111.064C475.788 109.384 470.448 108.124 463.368 107.284C457.248 106.564 451.668 105.184 446.628 103.144C441.708 100.984 437.808 98.1041 434.928 94.5041C432.048 90.7841 430.608 86.1641 430.608 80.6441C430.608 72.8441 433.668 66.5441 439.788 61.7441C445.908 56.9441 454.428 54.5441 465.348 54.5441C476.268 54.5441 484.728 57.0041 490.728 61.9241C496.728 66.8441 500.208 73.5641 501.168 82.0841H482.808C482.328 78.4841 480.468 75.6641 477.228 73.6241C473.988 71.4641 469.968 70.3841 465.168 70.3841C460.248 70.3841 456.348 71.3441 453.468 73.2641C450.588 75.0641 449.148 77.4641 449.148 80.4641C449.148 86.9441 456.108 90.9041 470.028 92.3441C476.628 93.0641 482.508 94.3241 487.668 96.1241C492.828 97.8041 496.908 100.504 499.908 104.224C502.908 107.824 504.408 112.924 504.408 119.524C504.528 124.924 502.968 129.784 499.728 134.104C496.608 138.424 492.228 141.844 486.588 144.364C481.068 146.884 474.588 148.144 467.148 148.144ZM566.078 145.984C557.318 145.984 550.358 143.884 545.198 139.684C540.038 135.364 537.458 127.744 537.458 116.824V72.9041H514.958V56.7041H528.278C534.398 56.7041 537.998 53.7041 539.078 47.7041L541.778 33.3041H556.538V56.7041H591.818V72.9041H556.538V116.464C556.538 121.144 557.558 124.444 559.598 126.364C561.758 128.164 565.418 129.064 570.578 129.064H591.458V145.984H566.078ZM606.148 145.984V129.424H627.928V79.2041C627.928 75.2441 626.008 73.2641 622.168 73.2641H607.948V56.7041H629.368C634.288 56.7041 638.308 58.1441 641.428 61.0241C644.548 63.7841 646.108 67.6841 646.108 72.7241V74.8841H647.008C648.328 68.1641 651.148 63.1241 655.468 59.7641C659.908 56.2841 666.328 54.5441 674.728 54.5441H688.588V74.7041H669.148C662.068 74.7041 656.608 77.1641 652.768 82.0841C648.928 87.0041 647.008 92.8841 647.008 99.7241V129.424H674.728V145.984H606.148ZM728.297 148.144C717.497 148.144 709.277 144.844 703.637 138.244C698.117 131.524 695.357 121.804 695.357 109.084V56.7041H714.437V106.744C714.437 114.064 715.997 119.824 719.117 124.024C722.357 128.104 727.277 130.144 733.877 130.144C740.477 130.144 745.997 127.924 750.437 123.484C754.877 119.044 757.097 112.624 757.097 104.224V56.7041H776.177V145.984H759.617L757.997 132.664H757.097C754.697 136.984 750.977 140.644 745.937 143.644C740.897 146.644 735.017 148.144 728.297 148.144ZM827.407 148.144C819.127 148.144 811.687 146.224 805.087 142.384C798.607 138.544 793.507 133.144 789.787 126.184C786.067 119.104 784.207 110.824 784.207 101.344C784.207 91.8641 786.067 83.6441 789.787 76.6841C793.627 69.7241 798.787 64.3241 805.267 60.4841C811.747 56.5241 819.127 54.5441 827.407 54.5441C838.807 54.5441 847.987 57.4241 854.947 63.1841C862.027 68.8241 866.527 76.6241 868.447 86.5841H848.467C847.267 82.2641 844.807 78.8441 841.087 76.3241C837.487 73.8041 832.867 72.5441 827.227 72.5441C823.147 72.5441 819.247 73.6241 815.527 75.7841C811.927 77.9441 808.987 81.1841 806.707 85.5041C804.547 89.7041 803.467 94.9841 803.467 101.344C803.467 107.584 804.547 112.864 806.707 117.184C808.987 121.504 811.927 124.804 815.527 127.084C819.247 129.244 823.147 130.324 827.227 130.324C832.987 130.324 837.607 129.064 841.087 126.544C844.567 124.024 847.027 120.544 848.467 116.104H868.447C866.047 125.944 861.367 133.744 854.407 139.504C847.447 145.264 838.447 148.144 827.407 148.144ZM925.797 145.984C917.037 145.984 910.077 143.884 904.917 139.684C899.757 135.364 897.177 127.744 897.177 116.824V72.9041H874.677V56.7041H887.997C894.117 56.7041 897.717 53.7041 898.797 47.7041L901.497 33.3041H916.257V56.7041H951.537V72.9041H916.257V116.464C916.257 121.144 917.277 124.444 919.317 126.364C921.477 128.164 925.137 129.064 930.297 129.064H951.177V145.984H925.797Z" fill="white"/>
</svg>
