<svg width="379" height="61" viewBox="0 0 379 61" fill="none" xmlns="http://www.w3.org/2000/svg">
<path d="M31.0849 0.457031V6.62144H12.5252C3.17892 6.22382 -3.58533 18.0847 4.23984 26.8382C12.065 35.5918 14.7128 38.438 14.7128 38.438H25.5171L9.74132 20.9389C8.04444 19.083 9.6751 14.8408 12.5252 14.8408H44.0103L31.0849 0.457031Z" fill="white"/>
<path d="M17.236 60.457V54.2926L35.7958 54.2926C45.142 54.6902 51.9063 42.8293 44.0811 34.0758C36.2559 25.3223 33.6082 22.4761 33.6082 22.4761H22.8039L38.5796 39.9751C40.2765 41.8311 38.6458 46.0733 35.7958 46.0733L4.31069 46.0733L17.236 60.457Z" fill="white"/>
<path d="M74.7128 56.959C69.982 56.959 66.2167 55.8487 63.4169 53.6281C60.617 51.4075 59.024 48.4629 58.6378 44.7941H66.5305C66.8201 46.4837 67.6649 47.8595 69.0648 48.9215C70.513 49.9835 72.4198 50.5145 74.7852 50.5145C77.054 50.5145 78.7919 50.0559 79.9987 49.1387C81.2538 48.1732 81.8813 47.063 81.8813 45.8079C81.8813 43.9735 81.1331 42.7184 79.6366 42.0426C78.1884 41.3667 76.0403 40.8599 73.1922 40.522C70.7303 40.2323 68.4856 39.6772 66.4581 38.8565C64.4789 37.9876 62.91 36.8291 61.7515 35.3809C60.5929 33.8844 60.0136 32.0259 60.0136 29.8053C60.0136 26.6676 61.2446 24.1332 63.7065 22.2023C66.1684 20.2714 69.5958 19.3059 73.9887 19.3059C78.3815 19.3059 81.7848 20.2955 84.1985 22.2747C86.6121 24.2539 88.012 26.9572 88.3982 30.3846H81.0124C80.8193 28.9364 80.0711 27.802 78.7677 26.9813C77.4643 26.1124 75.8472 25.678 73.9163 25.678C71.9371 25.678 70.3682 26.0642 69.2096 26.8365C68.0511 27.5606 67.4718 28.5261 67.4718 29.7329C67.4718 32.3397 70.2717 33.9327 75.8713 34.512C78.5264 34.8016 80.8917 35.3085 82.9675 36.0326C85.0432 36.7084 86.6845 37.7945 87.8913 39.291C89.0982 40.7392 89.7016 42.7908 89.7016 45.4458C89.7499 47.6181 89.1223 49.5732 87.8189 51.311C86.5638 53.0488 84.8019 54.4246 82.533 55.4383C80.3125 56.4521 77.7057 56.959 74.7128 56.959Z" fill="white"/>
<path d="M107.414 56.959C103.069 56.959 99.7624 55.6314 97.4935 52.9764C95.273 50.2731 94.1627 46.363 94.1627 41.2461V20.1748H101.838V40.3047C101.838 43.2494 102.466 45.5665 103.721 47.2561C105.024 48.8973 107.003 49.718 109.658 49.718C112.313 49.718 114.534 48.8249 116.32 47.0388C118.106 45.2527 118.999 42.6701 118.999 39.291V20.1748H126.675V56.09H120.013L119.361 50.7317H118.999C118.034 52.4696 116.537 53.9419 114.51 55.1487C112.482 56.3555 110.117 56.959 107.414 56.959Z" fill="white"/>
<path d="M148.731 56.959C146.076 56.959 143.832 56.4279 141.997 55.3659C140.211 54.2557 138.835 52.7351 137.87 50.8041H137.435L136.784 56.09H130.194V3.95507H137.87V24.8091C138.739 23.3609 140.115 22.0816 141.997 20.9713C143.88 19.8611 146.125 19.3059 148.731 19.3059C151.724 19.3059 154.403 20.03 156.769 21.4782C159.134 22.8781 160.993 24.978 162.344 27.7779C163.744 30.5777 164.444 34.0292 164.444 38.1324C164.444 42.2357 163.744 45.6872 162.344 48.487C160.993 51.2869 159.134 53.4109 156.769 54.8591C154.403 56.259 151.724 56.959 148.731 56.959ZM147.138 49.6456C149.89 49.6456 152.159 48.7042 153.945 46.8216C155.779 44.8907 156.696 42.0184 156.696 38.2048C156.696 34.343 155.779 31.4466 153.945 29.5157C152.159 27.5848 149.89 26.6193 147.138 26.6193C144.387 26.6193 142.094 27.5848 140.259 29.5157C138.473 31.3983 137.58 34.2706 137.58 38.1324C137.58 41.946 138.473 44.8183 140.259 46.7492C142.094 48.6801 144.387 49.6456 147.138 49.6456Z" fill="white"/>
<path d="M183.242 56.959C178.512 56.959 174.746 55.8487 171.947 53.6281C169.147 51.4075 167.554 48.4629 167.168 44.7941H175.06C175.35 46.4837 176.195 47.8595 177.595 48.9215C179.043 49.9835 180.949 50.5145 183.315 50.5145C185.584 50.5145 187.322 50.0559 188.528 49.1387C189.783 48.1732 190.411 47.063 190.411 45.8079C190.411 43.9735 189.663 42.7184 188.166 42.0426C186.718 41.3667 184.57 40.8599 181.722 40.522C179.26 40.2323 177.015 39.6772 174.988 38.8565C173.009 37.9876 171.44 36.8291 170.281 35.3809C169.123 33.8844 168.543 32.0259 168.543 29.8053C168.543 26.6676 169.774 24.1332 172.236 22.2023C174.698 20.2714 178.126 19.3059 182.518 19.3059C186.911 19.3059 190.314 20.2955 192.728 22.2747C195.142 24.2539 196.542 26.9572 196.928 30.3846H189.542C189.349 28.9364 188.601 27.802 187.297 26.9813C185.994 26.1124 184.377 25.678 182.446 25.678C180.467 25.678 178.898 26.0642 177.739 26.8365C176.581 27.5606 176.001 28.5261 176.001 29.7329C176.001 32.3397 178.801 33.9327 184.401 34.512C187.056 34.8016 189.421 35.3085 191.497 36.0326C193.573 36.7084 195.214 37.7945 196.421 39.291C197.628 40.7392 198.231 42.7908 198.231 45.4458C198.28 47.6181 197.652 49.5732 196.349 51.311C195.094 53.0488 193.332 54.4246 191.063 55.4383C188.842 56.4521 186.235 56.959 183.242 56.959Z" fill="white"/>
<path d="M223.039 56.09C219.516 56.09 216.716 55.2453 214.64 53.5557C212.564 51.8179 211.526 48.7525 211.526 44.3597V26.6917H202.475V20.1748H207.833C210.295 20.1748 211.744 18.968 212.178 16.5544L213.264 10.7616H219.202V20.1748H233.394V26.6917H219.202V44.2148C219.202 46.0975 219.612 47.425 220.433 48.1974C221.302 48.9215 222.774 49.2835 224.85 49.2835H233.249V56.09H223.039Z" fill="white"/>
<path d="M239.159 56.09V49.4283H247.92V29.226C247.92 27.633 247.148 26.8365 245.603 26.8365H239.883V20.1748H248.499C250.479 20.1748 252.096 20.7541 253.351 21.9127C254.606 23.023 255.234 24.5918 255.234 26.6193V27.4882H255.596C256.127 24.7849 257.261 22.7574 258.999 21.4058C260.785 20.0059 263.368 19.3059 266.747 19.3059H272.322V27.4158H264.502C261.654 27.4158 259.457 28.4054 257.913 30.3846C256.368 32.3638 255.596 34.7292 255.596 37.4808V49.4283H266.747V56.09H239.159Z" fill="white"/>
<path d="M288.296 56.959C283.952 56.959 280.645 55.6314 278.376 52.9764C276.156 50.2731 275.045 46.363 275.045 41.2461V20.1748H282.721V40.3047C282.721 43.2494 283.348 45.5665 284.604 47.2561C285.907 48.8973 287.886 49.718 290.541 49.718C293.196 49.718 295.417 48.8249 297.203 47.0388C298.989 45.2527 299.882 42.6701 299.882 39.291V20.1748H307.557V56.09H300.896L300.244 50.7317H299.882C298.917 52.4696 297.42 53.9419 295.393 55.1487C293.365 56.3555 291 56.959 288.296 56.959Z" fill="white"/>
<path d="M328.166 56.959C324.835 56.959 321.842 56.1866 319.187 54.6418C316.58 53.0971 314.529 50.9248 313.032 48.125C311.536 45.2769 310.788 41.946 310.788 38.1324C310.788 34.3189 311.536 31.0122 313.032 28.2123C314.577 25.4125 316.653 23.2402 319.26 21.6954C321.866 20.1024 324.835 19.3059 328.166 19.3059C332.752 19.3059 336.445 20.4645 339.245 22.7816C342.093 25.0504 343.903 28.1882 344.675 32.1948H336.638C336.155 30.457 335.166 29.0812 333.669 28.0675C332.221 27.0538 330.362 26.5469 328.093 26.5469C326.452 26.5469 324.883 26.9813 323.387 27.8503C321.939 28.7192 320.756 30.0226 319.839 31.7604C318.97 33.4499 318.535 35.574 318.535 38.1324C318.535 40.6426 318.97 42.7667 319.839 44.5045C320.756 46.2423 321.939 47.5698 323.387 48.487C324.883 49.3559 326.452 49.7904 328.093 49.7904C330.411 49.7904 332.269 49.2835 333.669 48.2698C335.069 47.2561 336.059 45.8561 336.638 44.07H344.675C343.71 48.0284 341.827 51.1662 339.027 53.4833C336.228 55.8004 332.607 56.959 328.166 56.959Z" fill="white"/>
<path d="M367.746 56.09C364.222 56.09 361.422 55.2453 359.346 53.5557C357.27 51.8179 356.233 48.7525 356.233 44.3597V26.6917H347.181V20.1748H352.54C355.002 20.1748 356.45 18.968 356.884 16.5544L357.97 10.7616H363.908V20.1748H378.1V26.6917H363.908V44.2148C363.908 46.0975 364.318 47.425 365.139 48.1974C366.008 48.9215 367.48 49.2835 369.556 49.2835H377.955V56.09H367.746Z" fill="white"/>
</svg>
