<svg width="630" height="101" viewBox="0 0 630 101" fill="none" xmlns="http://www.w3.org/2000/svg">
<path d="M51.2683 0.0449219V10.319H20.3353C4.7582 9.65626 -6.51558 29.4245 6.5264 44.0137C19.5684 58.603 23.9813 63.3467 23.9813 63.3467H41.9885L15.6956 34.1815C12.8674 31.0882 15.5852 24.0179 20.3353 24.0179H72.8106L51.2683 0.0449219Z" fill="white"/>
<path d="M28.1868 100.045L28.1868 89.7711L59.1197 89.7711C74.6969 90.4338 85.9707 70.6656 72.9287 56.0764C59.8867 41.4871 55.4738 36.7434 55.4738 36.7434L37.4666 36.7434L63.7595 65.9086C66.5877 69.0018 63.8699 76.0722 59.1197 76.0722L6.6445 76.0722L28.1868 100.045Z" fill="white"/>
<path d="M123.982 94.215C116.097 94.215 109.821 92.3645 105.155 88.6636C100.489 84.9627 97.8336 80.0549 97.1899 73.9403H110.344C110.827 76.7562 112.235 79.0492 114.568 80.8192C116.982 82.5892 120.16 83.4742 124.102 83.4742C127.884 83.4742 130.78 82.7099 132.791 81.1813C134.883 79.5721 135.929 77.7217 135.929 75.6298C135.929 72.5725 134.682 70.4807 132.188 69.3543C129.774 68.2279 126.194 67.3831 121.447 66.82C117.344 66.3372 113.603 65.412 110.224 64.0442C106.925 62.5961 104.31 60.6651 102.379 58.2515C100.448 55.7573 99.4829 52.6598 99.4829 48.9589C99.4829 43.7293 101.535 39.5054 105.638 36.2871C109.741 33.0689 115.453 31.4598 122.775 31.4598C130.096 31.4598 135.768 33.1092 139.791 36.4078C143.814 39.7065 146.147 44.212 146.791 49.9243H134.481C134.159 47.5107 132.912 45.62 130.74 44.2522C128.568 42.804 125.872 42.0799 122.654 42.0799C119.355 42.0799 116.741 42.7236 114.81 44.0109C112.879 45.2177 111.913 46.8268 111.913 48.8382C111.913 53.1828 116.58 55.8378 125.913 56.8033C130.338 57.286 134.28 58.1308 137.739 59.3376C141.199 60.464 143.935 62.2742 145.946 64.7683C147.957 67.182 148.963 70.6014 148.963 75.0264C149.043 78.6469 147.998 81.9054 145.825 84.8017C143.733 87.6981 140.797 89.9911 137.015 91.6807C133.314 93.3702 128.97 94.215 123.982 94.215Z" fill="white"/>
<path d="M178.483 94.215C171.242 94.215 165.731 92.0025 161.95 87.5775C158.249 83.072 156.398 76.5551 156.398 68.0268V32.908H169.191V66.4579C169.191 71.3657 170.237 75.2276 172.328 78.0435C174.501 80.779 177.799 82.1467 182.224 82.1467C186.649 82.1467 190.35 80.6583 193.327 77.6814C196.304 74.7046 197.792 70.4002 197.792 64.7683V32.908H210.585V92.7668H199.482L198.396 83.8363H197.792C196.183 86.7327 193.689 89.1866 190.31 91.1979C186.931 93.2093 182.989 94.215 178.483 94.215Z" fill="white"/>
<path d="M247.346 94.215C242.921 94.215 239.18 93.33 236.123 91.56C233.146 89.7095 230.853 87.1752 229.244 83.957H228.52L227.433 92.7668H216.451V5.875H229.244V40.6317C230.692 38.2181 232.985 36.086 236.123 34.2355C239.26 32.3851 243.002 31.4598 247.346 31.4598C252.334 31.4598 256.8 32.6666 260.742 35.0803C264.684 37.4135 267.782 40.9133 270.035 45.5797C272.368 50.2462 273.534 55.9987 273.534 62.8374C273.534 69.6761 272.368 75.4287 270.035 80.0951C267.782 84.7615 264.684 88.3016 260.742 90.7152C256.8 93.0484 252.334 94.215 247.346 94.215ZM244.691 82.026C249.277 82.026 253.058 80.4572 256.035 77.3194C259.093 74.1012 260.621 69.3141 260.621 62.9581C260.621 56.5217 259.093 51.6943 256.035 48.4761C253.058 45.2579 249.277 43.6488 244.691 43.6488C240.105 43.6488 236.283 45.2579 233.226 48.4761C230.249 51.6139 228.761 56.401 228.761 62.8374C228.761 69.1934 230.249 73.9805 233.226 77.1987C236.283 80.4169 240.105 82.026 244.691 82.026Z" fill="white"/>
<path d="M304.865 94.215C296.98 94.215 290.705 92.3645 286.038 88.6636C281.372 84.9627 278.717 80.0549 278.073 73.9403H291.228C291.71 76.7562 293.118 79.0492 295.452 80.8192C297.865 82.5892 301.043 83.4742 304.985 83.4742C308.767 83.4742 311.663 82.7099 313.675 81.1813C315.767 79.5721 316.812 77.7217 316.812 75.6298C316.812 72.5725 315.565 70.4807 313.071 69.3543C310.658 68.2279 307.077 67.3831 302.33 66.82C298.227 66.3372 294.486 65.412 291.107 64.0442C287.808 62.5961 285.193 60.6651 283.263 58.2515C281.332 55.7573 280.366 52.6598 280.366 48.9589C280.366 43.7293 282.418 39.5054 286.521 36.2871C290.624 33.0689 296.337 31.4598 303.658 31.4598C310.979 31.4598 316.652 33.1092 320.674 36.4078C324.697 39.7065 327.03 44.212 327.674 49.9243H315.364C315.042 47.5107 313.795 45.62 311.623 44.2522C309.451 42.804 306.756 42.0799 303.537 42.0799C300.239 42.0799 297.624 42.7236 295.693 44.0109C293.762 45.2177 292.796 46.8268 292.796 48.8382C292.796 53.1828 297.463 55.8378 306.796 56.8033C311.221 57.286 315.163 58.1308 318.623 59.3376C322.082 60.464 324.818 62.2742 326.829 64.7683C328.84 67.182 329.846 70.6014 329.846 75.0264C329.927 78.6469 328.881 81.9054 326.708 84.8017C324.617 87.6981 321.68 89.9911 317.899 91.6807C314.198 93.3702 309.853 94.215 304.865 94.215Z" fill="white"/>
<path d="M371.193 92.7668C365.32 92.7668 360.654 91.3589 357.194 88.5429C353.735 85.6465 352.005 80.5376 352.005 73.2162V43.7695H336.919V32.908H345.85C349.953 32.908 352.367 30.8966 353.091 26.8739L354.901 17.2192H364.797V32.908H388.451V43.7695H364.797V72.9748C364.797 76.1126 365.481 78.3251 366.849 79.6124C368.297 80.8192 370.751 81.4226 374.21 81.4226H388.21V92.7668H371.193Z" fill="white"/>
<path d="M398.059 92.7668V81.664H412.661V47.9934C412.661 45.3384 411.374 44.0109 408.799 44.0109H399.265V32.908H413.627C416.925 32.908 419.621 33.8735 421.712 35.8044C423.804 37.6549 424.85 40.2697 424.85 43.6488V45.097H425.454C426.339 40.5915 428.229 37.2124 431.126 34.9596C434.103 32.6264 438.407 31.4598 444.039 31.4598H453.331V44.9763H440.298C435.551 44.9763 431.89 46.6257 429.315 49.9243C426.741 53.223 425.454 57.1653 425.454 61.7513V81.664H444.039V92.7668H398.059Z" fill="white"/>
<path d="M479.955 94.215C472.714 94.215 467.203 92.0025 463.422 87.5775C459.721 83.072 457.87 76.5551 457.87 68.0268V32.908H470.663V66.4579C470.663 71.3657 471.709 75.2276 473.8 78.0435C475.973 80.779 479.271 82.1467 483.696 82.1467C488.121 82.1467 491.822 80.6583 494.799 77.6814C497.776 74.7046 499.264 70.4002 499.264 64.7683V32.908H512.057V92.7668H500.954L499.868 83.8363H499.264C497.655 86.7327 495.161 89.1866 491.782 91.1979C488.403 93.2093 484.461 94.215 479.955 94.215Z" fill="white"/>
<path d="M546.404 94.215C540.853 94.215 535.865 92.9277 531.44 90.3532C527.095 87.7786 523.676 84.1581 521.182 79.4917C518.688 74.7448 517.44 69.1934 517.44 62.8374C517.44 56.4814 518.688 50.9702 521.182 46.3038C523.756 41.6374 527.216 38.0169 531.56 35.4424C535.905 32.7873 540.853 31.4598 546.404 31.4598C554.048 31.4598 560.203 33.3907 564.869 37.2526C569.616 41.034 572.633 46.2636 573.92 52.9414H560.524C559.72 50.045 558.07 47.752 555.576 46.0625C553.163 44.3729 550.065 43.5281 546.284 43.5281C543.548 43.5281 540.933 44.2522 538.439 45.7004C536.026 47.1486 534.055 49.3209 532.526 52.2173C531.078 55.0332 530.354 58.5733 530.354 62.8374C530.354 67.0211 531.078 70.5611 532.526 73.4575C534.055 76.3539 536.026 78.5664 538.439 80.0951C540.933 81.5433 543.548 82.2674 546.284 82.2674C550.146 82.2674 553.243 81.4226 555.576 79.7331C557.91 78.0435 559.559 75.7103 560.524 72.7334H573.92C572.311 79.3308 569.173 84.5604 564.507 88.4222C559.84 92.2841 553.806 94.215 546.404 94.215Z" fill="white"/>
<path d="M612.371 92.7668C606.498 92.7668 601.831 91.3589 598.372 88.5429C594.912 85.6465 593.182 80.5376 593.182 73.2162V43.7695H578.097V32.908H587.027C591.131 32.908 593.544 30.8966 594.269 26.8739L596.079 17.2192H605.975V32.908H629.629V43.7695H605.975V72.9748C605.975 76.1126 606.659 78.3251 608.026 79.6124C609.475 80.8192 611.928 81.4226 615.388 81.4226H629.387V92.7668H612.371Z" fill="white"/>
</svg>
