<svg width="343" height="60" viewBox="0 0 343 60" fill="none" xmlns="http://www.w3.org/2000/svg">
<path d="M28.471 0.141212C28.2112 -0.147554 27.7322 0.0361753 27.7322 0.424564V7.23318L12.6269 7.23318V7.24594C12.5512 7.24936 12.4756 7.25347 12.4002 7.25824C8.4656 7.50763 5.0313 9.599 2.95007 12.6796C2.00563 14.0776 1.33982 15.6793 1.03234 17.405C0.90617 18.1131 0.840332 18.8421 0.840332 19.5864C0.840332 19.733 0.842885 19.879 0.847949 20.0243C0.848835 20.0498 0.849799 20.0752 0.850839 20.1006C0.852499 20.1412 0.854355 20.1817 0.856406 20.2221C0.984401 22.7472 1.87059 25.0722 3.29184 26.974C3.74211 27.5766 4.24612 28.1367 4.79671 28.6472L13.5287 38.3553C13.7296 38.5787 14.0159 38.7062 14.3163 38.7062H26.0988C26.649 38.7062 26.9392 38.0547 26.5713 37.6456L11.1971 20.5526C11.0555 20.2606 10.9761 19.9328 10.9761 19.5864C10.9761 18.5187 11.7308 17.6272 12.7359 17.4162L12.7413 17.405L42.571 17.405C43.1211 17.405 43.4114 16.7534 43.0435 16.3444L34.8485 7.23318L34.8498 7.23318L28.471 0.141212Z" fill="white"/>
<path d="M17.4301 59.8588C17.6898 60.1476 18.1688 59.9638 18.1688 59.5754L18.1688 52.7668L33.2741 52.7668V52.7541C37.3034 52.5721 40.8299 50.46 42.951 47.3204C43.8954 45.9224 44.5612 44.3207 44.8687 42.595C44.9949 41.8869 45.0607 41.1579 45.0607 40.4136C45.0607 40.267 45.0582 40.121 45.0531 39.9757C45.0522 39.9502 45.0513 39.9248 45.0502 39.8994C45.0486 39.8588 45.0467 39.8183 45.0446 39.7779C44.9166 37.2528 44.0305 34.9278 42.6092 33.026C42.1589 32.4234 41.6549 31.8633 41.1043 31.3528L32.3724 21.6447C32.1715 21.4213 31.8852 21.2938 31.5848 21.2938L19.8023 21.2938C19.2521 21.2938 18.9618 21.9453 19.3297 22.3544L34.704 39.4474C34.8456 39.7394 34.9249 40.0672 34.9249 40.4136C34.9249 41.4813 34.1703 42.3728 33.1652 42.5838L33.1598 42.595L3.3301 42.595C2.77994 42.595 2.48964 43.2466 2.85756 43.6556L11.0526 52.7668L11.0512 52.7668L17.4301 59.8588Z" fill="white"/>
<path fill-rule="evenodd" clip-rule="evenodd" d="M29.5398 9.04076L12.9505 9.04075L12.7084 9.05168C12.6437 9.0546 12.579 9.05811 12.5146 9.0622C9.15995 9.27482 6.22756 11.0572 4.44787 13.6915C3.6415 14.8851 3.074 16.2509 2.81189 17.722C2.70428 18.326 2.64791 18.9489 2.64791 19.5864C2.64791 19.712 2.65009 19.837 2.65443 19.9614C2.65519 19.9832 2.65601 20.0049 2.6569 20.0267C2.65832 20.0614 2.65991 20.096 2.66166 20.1306C2.77091 22.2859 3.52631 24.2682 4.73977 25.892C5.12444 26.4067 5.55513 26.8854 6.02568 27.3217L6.08581 27.3774L14.6497 36.8986H23.4683L9.68215 21.5713L9.57059 21.3412C9.31242 20.8087 9.16852 20.2118 9.16852 19.5864C9.16852 17.9963 10.0894 16.6241 11.4262 15.9697L11.6055 15.5974L39.9405 15.5974L30.7782 5.41084L30.7795 5.41085L29.5398 4.03251V9.04076ZM34.8498 7.23318L34.8485 7.23318L43.0435 16.3444C43.4114 16.7534 43.1211 17.405 42.571 17.405L12.7413 17.405L12.7359 17.4162C11.7308 17.6272 10.9761 18.5187 10.9761 19.5864C10.9761 19.9328 11.0555 20.2606 11.1971 20.5526L26.5713 37.6456C26.9392 38.0547 26.649 38.7062 26.0988 38.7062H14.3163C14.0159 38.7062 13.7296 38.5787 13.5287 38.3553L4.79671 28.6472C4.24612 28.1367 3.74211 27.5766 3.29184 26.974C1.87059 25.0722 0.984401 22.7472 0.856406 20.2221C0.854355 20.1817 0.852499 20.1412 0.850839 20.1006C0.849799 20.0752 0.848835 20.0498 0.847949 20.0243C0.842885 19.879 0.840332 19.733 0.840332 19.5864C0.840332 18.8421 0.90617 18.1131 1.03234 17.405C1.33982 15.6793 2.00563 14.0776 2.95007 12.6796C5.0313 9.599 8.4656 7.50763 12.4002 7.25824C12.4756 7.25347 12.5512 7.24936 12.6269 7.24594V7.23318L27.7322 7.23318V0.424564C27.7322 0.0361753 28.2112 -0.147554 28.471 0.141212L34.8498 7.23318ZM16.3612 50.9592L32.9505 50.9593L33.1926 50.9483C36.6285 50.7932 39.6394 48.9932 41.4532 46.3085C42.2596 45.1149 42.827 43.7491 43.0892 42.278C43.1968 41.674 43.2531 41.0511 43.2531 40.4136C43.2531 40.288 43.251 40.163 43.2466 40.0386C43.2459 40.0168 43.245 39.9951 43.2442 39.9733C43.2427 39.9387 43.2411 39.904 43.2394 39.8694C43.1301 37.7141 42.3747 35.7318 41.1613 34.108C40.7766 33.5933 40.3459 33.1146 39.8754 32.6783L39.8152 32.6226L31.2514 23.1014L22.4328 23.1014L36.2189 38.4287L36.3305 38.6588C36.5886 39.1913 36.7325 39.7882 36.7325 40.4136C36.7325 42.0037 35.8117 43.376 34.4748 44.0303L34.2955 44.4026L5.9606 44.4026L15.1247 54.5913L15.1234 54.5913L16.3612 55.9675V50.9592ZM11.0526 52.7683L11.0518 52.7675L11.0512 52.7668L11.0526 52.7668L11.052 52.7662L11.0512 52.7653L2.85756 43.6556C2.48964 43.2466 2.77994 42.595 3.3301 42.595L33.1598 42.595L33.1652 42.5838C34.1703 42.3728 34.9249 41.4813 34.9249 40.4136C34.9249 40.0672 34.8456 39.7394 34.704 39.4474L19.3297 22.3544C18.9618 21.9453 19.2521 21.2938 19.8023 21.2938L31.5848 21.2938C31.8852 21.2938 32.1715 21.4213 32.3724 21.6447L41.1043 31.3528C41.6549 31.8633 42.1589 32.4234 42.6092 33.026C44.0305 34.9278 44.9166 37.2528 45.0446 39.7779C45.0467 39.8183 45.0486 39.8588 45.0502 39.8994L45.0519 39.9422L45.0531 39.9757C45.0582 40.121 45.0607 40.267 45.0607 40.4136C45.0607 41.1579 44.9949 41.8869 44.8687 42.595C44.5612 44.3207 43.8954 45.9224 42.951 47.3204C40.8299 50.46 37.3034 52.5721 33.2741 52.7541V52.7668L18.1688 52.7668L18.1688 59.5754C18.1688 59.9638 17.6898 60.1476 17.4301 59.8588L11.0526 52.7683Z" fill="#111111"/>
<path d="M70.3524 53.8166C66.101 53.8166 62.7172 52.8188 60.201 50.8232C57.6849 48.8277 56.2533 46.1814 55.9062 42.8844H62.9992C63.2595 44.4027 64.0186 45.6391 65.2767 46.5935C66.5782 47.5479 68.2918 48.0251 70.4175 48.0251C72.4564 48.0251 74.0182 47.613 75.1027 46.7887C76.2306 45.9211 76.7946 44.9233 76.7946 43.7954C76.7946 42.1469 76.1222 41.0189 74.7773 40.4116C73.4759 39.8042 71.5454 39.3487 68.9859 39.0451C66.7734 38.7848 64.7561 38.2859 62.9341 37.5484C61.1554 36.7675 59.7455 35.7264 58.7044 34.4249C57.6632 33.0801 57.1426 31.4099 57.1426 29.4143C57.1426 26.5945 58.2489 24.3169 60.4613 22.5817C62.6738 20.8464 65.7539 19.9788 69.7017 19.9788C73.6494 19.9788 76.7078 20.8681 78.8769 22.6467C81.046 24.4254 82.3041 26.8548 82.6511 29.9349H76.0137C75.8402 28.6334 75.1678 27.614 73.9965 26.8765C72.8252 26.0956 71.3719 25.7052 69.6366 25.7052C67.8579 25.7052 66.448 26.0522 65.4069 26.7463C64.3657 27.3971 63.8451 28.2647 63.8451 29.3492C63.8451 31.6919 66.3613 33.1235 71.3936 33.644C73.7796 33.9043 75.9053 34.3598 77.7707 35.0106C79.6361 35.6179 81.1111 36.594 82.1956 37.9388C83.2802 39.2403 83.8224 41.084 83.8224 43.47C83.8658 45.4222 83.3019 47.1792 82.1305 48.7409C81.0026 50.3026 79.4192 51.539 77.3802 52.45C75.3847 53.3611 73.0421 53.8166 70.3524 53.8166Z" fill="white"/>
<path d="M99.7398 53.8166C95.8355 53.8166 92.8638 52.6236 90.8249 50.2376C88.8293 47.8082 87.8315 44.2943 87.8315 39.6958V20.7596H94.7292V38.8498C94.7292 41.4961 95.2932 43.5785 96.4211 45.0968C97.5924 46.5718 99.3711 47.3093 101.757 47.3093C104.143 47.3093 106.139 46.5067 107.744 44.9016C109.349 43.2965 110.151 40.9756 110.151 37.9388V20.7596H117.049V53.0357H111.062L110.477 48.2203H110.151C109.284 49.7821 107.939 51.1052 106.117 52.1898C104.295 53.2743 102.169 53.8166 99.7398 53.8166Z" fill="white"/>
<path d="M136.871 53.8166C134.485 53.8166 132.468 53.3394 130.819 52.385C129.214 51.3872 127.978 50.0207 127.11 48.2854H126.72L126.134 53.0357H120.212V6.18335H127.11V24.9243C127.891 23.6228 129.127 22.4732 130.819 21.4754C132.511 20.4777 134.528 19.9788 136.871 19.9788C139.561 19.9788 141.968 20.6295 144.094 21.9309C146.22 23.189 147.89 25.0761 149.105 27.5923C150.363 30.1084 150.992 33.2102 150.992 36.8977C150.992 40.5851 150.363 43.6869 149.105 46.2031C147.89 48.7192 146.22 50.628 144.094 51.9295C141.968 53.1875 139.561 53.8166 136.871 53.8166ZM135.439 47.2442C137.912 47.2442 139.951 46.3983 141.556 44.7064C143.205 42.9711 144.029 40.3899 144.029 36.9627C144.029 33.4922 143.205 30.8893 141.556 29.154C139.951 27.4187 137.912 26.5511 135.439 26.5511C132.967 26.5511 130.906 27.4187 129.257 29.154C127.652 30.8459 126.85 33.4271 126.85 36.8977C126.85 40.3248 127.652 42.906 129.257 44.6413C130.906 46.3766 132.967 47.2442 135.439 47.2442Z" fill="white"/>
<path d="M167.885 53.8166C163.634 53.8166 160.25 52.8188 157.734 50.8232C155.218 48.8277 153.786 46.1814 153.439 42.8844H160.532C160.792 44.4027 161.551 45.6391 162.81 46.5935C164.111 47.5479 165.825 48.0251 167.95 48.0251C169.989 48.0251 171.551 47.613 172.635 46.7887C173.763 45.9211 174.327 44.9233 174.327 43.7954C174.327 42.1469 173.655 41.0189 172.31 40.4116C171.009 39.8042 169.078 39.3487 166.519 39.0451C164.306 38.7848 162.289 38.2859 160.467 37.5484C158.688 36.7675 157.278 35.7264 156.237 34.4249C155.196 33.0801 154.675 31.4099 154.675 29.4143C154.675 26.5945 155.782 24.3169 157.994 22.5817C160.207 20.8464 163.287 19.9788 167.234 19.9788C171.182 19.9788 174.241 20.8681 176.41 22.6467C178.579 24.4254 179.837 26.8548 180.184 29.9349H173.547C173.373 28.6334 172.701 27.614 171.529 26.8765C170.358 26.0956 168.905 25.7052 167.169 25.7052C165.391 25.7052 163.981 26.0522 162.94 26.7463C161.898 27.3971 161.378 28.2647 161.378 29.3492C161.378 31.6919 163.894 33.1235 168.926 33.644C171.312 33.9043 173.438 34.3598 175.303 35.0106C177.169 35.6179 178.644 36.594 179.728 37.9388C180.813 39.2403 181.355 41.084 181.355 43.47C181.399 45.4222 180.835 47.1792 179.663 48.7409C178.535 50.3026 176.952 51.539 174.913 52.45C172.917 53.3611 170.575 53.8166 167.885 53.8166Z" fill="white"/>
<path d="M203.65 53.0357C200.483 53.0357 197.967 52.2765 196.101 50.7582C194.236 49.1964 193.303 46.4417 193.303 42.4939V26.6162H185.169V20.7596H189.984C192.197 20.7596 193.498 19.6751 193.889 17.506L194.865 12.3002H200.201V20.7596H212.955V26.6162H200.201V42.3638C200.201 44.0557 200.57 45.2487 201.307 45.9428C202.088 46.5935 203.411 46.9189 205.277 46.9189H212.825V53.0357H203.65Z" fill="white"/>
<path d="M218.136 53.0357V47.049H226.009V28.8937C226.009 27.4621 225.315 26.7463 223.927 26.7463H218.786V20.7596H226.53C228.309 20.7596 229.762 21.2802 230.89 22.3214C232.018 23.3192 232.582 24.7291 232.582 26.5511V27.332H232.907C233.384 24.9026 234.404 23.0806 235.965 21.8659C237.571 20.6078 239.892 19.9788 242.928 19.9788H247.939V27.2669H240.911C238.351 27.2669 236.378 28.1562 234.989 29.9349C233.601 31.7135 232.907 33.8392 232.907 36.312V47.049H242.928V53.0357H218.136Z" fill="white"/>
<path d="M262.294 53.8166C258.39 53.8166 255.418 52.6236 253.38 50.2376C251.384 47.8082 250.386 44.2943 250.386 39.6958V20.7596H257.284V38.8498C257.284 41.4961 257.848 43.5785 258.976 45.0968C260.147 46.5718 261.926 47.3093 264.312 47.3093C266.698 47.3093 268.693 46.5067 270.298 44.9016C271.904 43.2965 272.706 40.9756 272.706 37.9388V20.7596H279.604V53.0357H273.617L273.031 48.2203H272.706C271.838 49.7821 270.494 51.1052 268.672 52.1898C266.85 53.2743 264.724 53.8166 262.294 53.8166Z" fill="white"/>
<path d="M298.124 53.8166C295.131 53.8166 292.441 53.1225 290.055 51.7342C287.712 50.346 285.869 48.3938 284.524 45.8777C283.179 43.3182 282.507 40.3248 282.507 36.8977C282.507 33.4705 283.179 30.4989 284.524 27.9827C285.912 25.4666 287.778 23.5144 290.12 22.1262C292.463 20.6946 295.131 19.9788 298.124 19.9788C302.245 19.9788 305.564 21.0199 308.08 23.1023C310.64 25.1412 312.267 27.961 312.961 31.5617H305.738C305.304 30 304.414 28.7636 303.07 27.8526C301.768 26.9415 300.098 26.486 298.059 26.486C296.584 26.486 295.174 26.8765 293.829 27.6573C292.528 28.4382 291.465 29.6095 290.641 31.1713C289.86 32.6896 289.469 34.5984 289.469 36.8977C289.469 39.1535 289.86 41.0623 290.641 42.6241C291.465 44.1858 292.528 45.3788 293.829 46.2031C295.174 46.9839 296.584 47.3744 298.059 47.3744C300.141 47.3744 301.812 46.9189 303.07 46.0078C304.328 45.0968 305.217 43.8388 305.738 42.2336H312.961C312.093 45.7909 310.401 48.6108 307.885 50.6931C305.369 52.7754 302.115 53.8166 298.124 53.8166Z" fill="white"/>
<path d="M333.693 53.0357C330.527 53.0357 328.01 52.2765 326.145 50.7582C324.28 49.1964 323.347 46.4417 323.347 42.4939V26.6162H315.213V20.7596H320.028C322.241 20.7596 323.542 19.6751 323.933 17.506L324.909 12.3002H330.245V20.7596H342.999V26.6162H330.245V42.3638C330.245 44.0557 330.613 45.2487 331.351 45.9428C332.132 46.5935 333.455 46.9189 335.32 46.9189H342.869V53.0357H333.693Z" fill="white"/>
</svg>
