<svg width="971" height="166" viewBox="0 0 971 166" fill="none" xmlns="http://www.w3.org/2000/svg">
<path d="M74.3867 22.0238H76.3867V20.0238V3.34888L89.5713 18.0075L89.5676 18.0075L92.5842 21.3613L114.89 46.1604L32.9197 46.1604H31.663L31.4935 46.5122C28.3168 47.6194 26.0369 50.6389 26.0369 54.1946C26.0369 55.4614 26.3279 56.6658 26.8486 57.7397L26.972 57.9943L27.1612 58.2047L69.3254 105.083H37.2763C37.0125 105.083 36.7612 104.971 36.5848 104.774L12.4309 77.9204L12.3702 77.8529L12.3037 77.7912C10.8692 76.4613 9.55621 75.0021 8.38328 73.4325C4.68181 68.4794 2.37521 62.4273 2.0419 55.8518C2.03655 55.7464 2.03172 55.6408 2.02739 55.5351C2.02468 55.4689 2.02217 55.4026 2.01986 55.3363C2.00666 54.9575 2 54.5769 2 54.1946C2 52.2538 2.17165 50.3547 2.50011 48.5112C3.30045 44.0194 5.03339 39.8498 7.49308 36.209C12.9164 28.1815 21.8608 22.7383 32.1028 22.0892C32.2992 22.0767 32.4961 22.066 32.6935 22.0571L33.4306 22.0238L74.3867 22.0238ZM47.933 143.976H45.933V145.976L45.933 162.651L32.7505 147.995L32.7541 147.995L29.7355 144.639L7.43005 119.84L89.4 119.84H90.6566L90.826 119.488C94.0028 118.381 96.2827 115.361 96.2827 111.805C96.2827 110.539 95.9917 109.334 95.4711 108.26L95.3476 108.006L95.1584 107.795L52.9943 60.9174L85.0434 60.9174C85.3071 60.9174 85.5585 61.0294 85.7349 61.2255L109.889 88.0796L109.949 88.147L110.016 88.2087C111.45 89.5387 112.763 90.9979 113.936 92.5674C117.638 97.5205 119.944 103.573 120.278 110.148C120.283 110.254 120.288 110.359 120.292 110.465C120.295 110.531 120.297 110.597 120.3 110.664C120.313 111.042 120.32 111.423 120.32 111.805C120.32 113.746 120.148 115.645 119.82 117.489C119.019 121.981 117.286 126.15 114.827 129.791C109.299 137.972 100.115 143.469 89.6261 143.943L88.8887 143.976L47.933 143.976Z" fill="#111111" stroke="white" stroke-width="4"/>
<path d="M197.04 148.16C185.28 148.16 175.92 145.4 168.96 139.88C162 134.36 158.04 127.04 157.08 117.92H176.7C177.42 122.12 179.52 125.54 183 128.18C186.6 130.82 191.34 132.14 197.22 132.14C202.86 132.14 207.18 131 210.18 128.72C213.3 126.32 214.86 123.56 214.86 120.44C214.86 115.88 213 112.76 209.28 111.08C205.68 109.4 200.34 108.14 193.26 107.3C187.14 106.58 181.56 105.2 176.52 103.16C171.6 101 167.7 98.12 164.82 94.52C161.94 90.8 160.5 86.18 160.5 80.66C160.5 72.86 163.56 66.56 169.68 61.76C175.8 56.96 184.32 54.56 195.24 54.56C206.16 54.56 214.62 57.02 220.62 61.94C226.62 66.86 230.1 73.58 231.06 82.1H212.7C212.22 78.5 210.36 75.68 207.12 73.64C203.88 71.48 199.86 70.4 195.06 70.4C190.14 70.4 186.24 71.36 183.36 73.28C180.48 75.08 179.04 77.48 179.04 80.48C179.04 86.96 186 90.92 199.92 92.36C206.52 93.08 212.4 94.34 217.56 96.14C222.72 97.82 226.8 100.52 229.8 104.24C232.8 107.84 234.3 112.94 234.3 119.54C234.42 124.94 232.86 129.8 229.62 134.12C226.5 138.44 222.12 141.86 216.48 144.38C210.96 146.9 204.48 148.16 197.04 148.16ZM278.329 148.16C267.529 148.16 259.309 144.86 253.669 138.26C248.149 131.54 245.389 121.82 245.389 109.1V56.72H264.469V106.76C264.469 114.08 266.029 119.84 269.149 124.04C272.389 128.12 277.309 130.16 283.909 130.16C290.509 130.16 296.029 127.94 300.469 123.5C304.909 119.06 307.129 112.64 307.129 104.24V56.72H326.209V146H309.649L308.029 132.68H307.129C304.729 137 301.009 140.66 295.969 143.66C290.929 146.66 285.049 148.16 278.329 148.16ZM381.039 148.16C374.439 148.16 368.859 146.84 364.299 144.2C359.859 141.44 356.439 137.66 354.039 132.86H352.959L351.339 146H334.959V16.4H354.039V68.24C356.199 64.64 359.619 61.46 364.299 58.7C368.979 55.94 374.559 54.56 381.039 54.56C388.479 54.56 395.139 56.36 401.019 59.96C406.899 63.44 411.519 68.66 414.879 75.62C418.359 82.58 420.099 91.16 420.099 101.36C420.099 111.56 418.359 120.14 414.879 127.1C411.519 134.06 406.899 139.34 401.019 142.94C395.139 146.42 388.479 148.16 381.039 148.16ZM377.079 129.98C383.919 129.98 389.559 127.64 393.999 122.96C398.559 118.16 400.839 111.02 400.839 101.54C400.839 91.94 398.559 84.74 393.999 79.94C389.559 75.14 383.919 72.74 377.079 72.74C370.239 72.74 364.539 75.14 359.979 79.94C355.539 84.62 353.319 91.76 353.319 101.36C353.319 110.84 355.539 117.98 359.979 122.78C364.539 127.58 370.239 129.98 377.079 129.98ZM466.829 148.16C455.069 148.16 445.709 145.4 438.749 139.88C431.789 134.36 427.829 127.04 426.869 117.92H446.489C447.209 122.12 449.309 125.54 452.789 128.18C456.389 130.82 461.129 132.14 467.009 132.14C472.649 132.14 476.969 131 479.969 128.72C483.089 126.32 484.649 123.56 484.649 120.44C484.649 115.88 482.789 112.76 479.069 111.08C475.469 109.4 470.129 108.14 463.049 107.3C456.929 106.58 451.349 105.2 446.309 103.16C441.389 101 437.489 98.12 434.609 94.52C431.729 90.8 430.289 86.18 430.289 80.66C430.289 72.86 433.349 66.56 439.469 61.76C445.589 56.96 454.109 54.56 465.029 54.56C475.949 54.56 484.409 57.02 490.409 61.94C496.409 66.86 499.889 73.58 500.849 82.1H482.489C482.009 78.5 480.149 75.68 476.909 73.64C473.669 71.48 469.649 70.4 464.849 70.4C459.929 70.4 456.029 71.36 453.149 73.28C450.269 75.08 448.829 77.48 448.829 80.48C448.829 86.96 455.789 90.92 469.709 92.36C476.309 93.08 482.189 94.34 487.349 96.14C492.509 97.82 496.589 100.52 499.589 104.24C502.589 107.84 504.089 112.94 504.089 119.54C504.209 124.94 502.649 129.8 499.409 134.12C496.289 138.44 491.909 141.86 486.269 144.38C480.749 146.9 474.269 148.16 466.829 148.16ZM565.758 146C556.998 146 550.038 143.9 544.878 139.7C539.718 135.38 537.138 127.76 537.138 116.84V72.92H514.638V56.72H527.958C534.078 56.72 537.678 53.72 538.758 47.72L541.458 33.32H556.218V56.72H591.498V72.92H556.218V116.48C556.218 121.16 557.238 124.46 559.278 126.38C561.438 128.18 565.098 129.08 570.258 129.08H591.138V146H565.758ZM605.828 146V129.44H627.608V79.22C627.608 75.26 625.688 73.28 621.848 73.28H607.628V56.72H629.048C633.968 56.72 637.988 58.16 641.108 61.04C644.228 63.8 645.788 67.7 645.788 72.74V74.9H646.688C648.008 68.18 650.828 63.14 655.148 59.78C659.588 56.3 666.008 54.56 674.408 54.56H688.268V74.72H668.828C661.748 74.72 656.288 77.18 652.448 82.1C648.608 87.02 646.688 92.9 646.688 99.74V129.44H674.408V146H605.828ZM727.978 148.16C717.178 148.16 708.958 144.86 703.318 138.26C697.798 131.54 695.038 121.82 695.038 109.1V56.72H714.118V106.76C714.118 114.08 715.678 119.84 718.798 124.04C722.038 128.12 726.958 130.16 733.558 130.16C740.158 130.16 745.678 127.94 750.118 123.5C754.558 119.06 756.778 112.64 756.778 104.24V56.72H775.858V146H759.298L757.678 132.68H756.778C754.378 137 750.658 140.66 745.618 143.66C740.578 146.66 734.698 148.16 727.978 148.16ZM827.087 148.16C818.807 148.16 811.367 146.24 804.767 142.4C798.287 138.56 793.187 133.16 789.467 126.2C785.747 119.12 783.887 110.84 783.887 101.36C783.887 91.88 785.747 83.66 789.467 76.7C793.307 69.74 798.467 64.34 804.947 60.5C811.427 56.54 818.807 54.56 827.087 54.56C838.487 54.56 847.667 57.44 854.627 63.2C861.707 68.84 866.207 76.64 868.127 86.6H848.147C846.947 82.28 844.487 78.86 840.767 76.34C837.167 73.82 832.547 72.56 826.907 72.56C822.827 72.56 818.927 73.64 815.207 75.8C811.607 77.96 808.667 81.2 806.387 85.52C804.227 89.72 803.147 95 803.147 101.36C803.147 107.6 804.227 112.88 806.387 117.2C808.667 121.52 811.607 124.82 815.207 127.1C818.927 129.26 822.827 130.34 826.907 130.34C832.667 130.34 837.287 129.08 840.767 126.56C844.247 124.04 846.707 120.56 848.147 116.12H868.127C865.727 125.96 861.047 133.76 854.087 139.52C847.127 145.28 838.127 148.16 827.087 148.16ZM925.477 146C916.717 146 909.757 143.9 904.597 139.7C899.437 135.38 896.857 127.76 896.857 116.84V72.92H874.357V56.72H887.677C893.797 56.72 897.397 53.72 898.477 47.72L901.177 33.32H915.937V56.72H951.217V72.92H915.937V116.48C915.937 121.16 916.957 124.46 918.997 126.38C921.157 128.18 924.817 129.08 929.977 129.08H950.857V146H925.477Z" fill="#111111"/>
</svg>
