<svg width="379" height="61" viewBox="0 0 379 61" fill="none" xmlns="http://www.w3.org/2000/svg">
<path d="M31.0849 0.895996V7.06041H12.5252C3.17892 6.66278 -3.58533 18.5237 4.23984 27.2772C12.065 36.0307 14.7128 38.877 14.7128 38.877H25.5171L9.74132 21.3779C8.04444 19.5219 9.6751 15.2797 12.5252 15.2797H44.0103L31.0849 0.895996Z" fill="#111111"/>
<path d="M17.236 60.896V54.7316L35.7958 54.7316C45.142 55.1292 51.9063 43.2683 44.0811 34.5148C36.2559 25.7613 33.6082 22.915 33.6082 22.915H22.8039L38.5796 40.4141C40.2765 42.27 38.6458 46.5122 35.7958 46.5122L4.31069 46.5122L17.236 60.896Z" fill="#111111"/>
<path d="M74.7128 57.3979C69.982 57.3979 66.2167 56.2876 63.4169 54.0671C60.617 51.8465 59.024 48.9018 58.6378 45.2331H66.5305C66.8201 46.9227 67.6649 48.2984 69.0648 49.3604C70.513 50.4225 72.4198 50.9535 74.7852 50.9535C77.054 50.9535 78.7919 50.4949 79.9987 49.5777C81.2538 48.6122 81.8813 47.5019 81.8813 46.2468C81.8813 44.4124 81.1331 43.1574 79.6366 42.4815C78.1884 41.8057 76.0403 41.2988 73.1922 40.9609C70.7303 40.6713 68.4856 40.1161 66.4581 39.2955C64.4789 38.4266 62.91 37.268 61.7515 35.8198C60.5929 34.3234 60.0136 32.4649 60.0136 30.2443C60.0136 27.1065 61.2446 24.5722 63.7065 22.6413C66.1684 20.7103 69.5958 19.7449 73.9887 19.7449C78.3815 19.7449 81.7848 20.7345 84.1985 22.7137C86.6121 24.6929 88.012 27.3962 88.3982 30.8236H81.0124C80.8193 29.3754 80.0711 28.241 78.7677 27.4203C77.4643 26.5514 75.8472 26.1169 73.9163 26.1169C71.9371 26.1169 70.3682 26.5031 69.2096 27.2755C68.0511 27.9996 67.4718 28.9651 67.4718 30.1719C67.4718 32.7786 70.2717 34.3716 75.8713 34.9509C78.5264 35.2406 80.8917 35.7474 82.9675 36.4715C85.0432 37.1473 86.6845 38.2335 87.8913 39.73C89.0982 41.1781 89.7016 43.2298 89.7016 45.8848C89.7499 48.0571 89.1223 50.0121 87.8189 51.75C86.5638 53.4878 84.8019 54.8636 82.533 55.8773C80.3125 56.891 77.7057 57.3979 74.7128 57.3979Z" fill="#111111"/>
<path d="M107.414 57.3979C103.069 57.3979 99.7624 56.0704 97.4935 53.4154C95.273 50.7121 94.1627 46.802 94.1627 41.685V20.6138H101.838V40.7437C101.838 43.6883 102.466 46.0055 103.721 47.695C105.024 49.3363 107.003 50.1569 109.658 50.1569C112.313 50.1569 114.534 49.2639 116.32 47.4778C118.106 45.6917 118.999 43.1091 118.999 39.73V20.6138H126.675V56.529H120.013L119.361 51.1707H118.999C118.034 52.9085 116.537 54.3808 114.51 55.5877C112.482 56.7945 110.117 57.3979 107.414 57.3979Z" fill="#111111"/>
<path d="M148.731 57.3979C146.076 57.3979 143.832 56.8669 141.997 55.8049C140.211 54.6946 138.835 53.174 137.87 51.2431H137.435L136.784 56.529H130.194V4.39403H137.87V25.248C138.739 23.7998 140.115 22.5206 141.997 21.4103C143.88 20.3 146.125 19.7449 148.731 19.7449C151.724 19.7449 154.403 20.469 156.769 21.9172C159.134 23.3171 160.993 25.417 162.344 28.2168C163.744 31.0167 164.444 34.4682 164.444 38.5714C164.444 42.6746 163.744 46.1261 162.344 48.926C160.993 51.7258 159.134 53.8498 156.769 55.298C154.403 56.698 151.724 57.3979 148.731 57.3979ZM147.138 50.0845C149.89 50.0845 152.159 49.1432 153.945 47.2606C155.779 45.3296 156.696 42.4574 156.696 38.6438C156.696 34.782 155.779 31.8856 153.945 29.9547C152.159 28.0237 149.89 27.0583 147.138 27.0583C144.387 27.0583 142.094 28.0237 140.259 29.9547C138.473 31.8373 137.58 34.7096 137.58 38.5714C137.58 42.385 138.473 45.2572 140.259 47.1882C142.094 49.1191 144.387 50.0845 147.138 50.0845Z" fill="#111111"/>
<path d="M183.242 57.3979C178.512 57.3979 174.746 56.2876 171.947 54.0671C169.147 51.8465 167.554 48.9018 167.168 45.2331H175.06C175.35 46.9227 176.195 48.2984 177.595 49.3604C179.043 50.4225 180.949 50.9535 183.315 50.9535C185.584 50.9535 187.322 50.4949 188.528 49.5777C189.783 48.6122 190.411 47.5019 190.411 46.2468C190.411 44.4124 189.663 43.1574 188.166 42.4815C186.718 41.8057 184.57 41.2988 181.722 40.9609C179.26 40.6713 177.015 40.1161 174.988 39.2955C173.009 38.4266 171.44 37.268 170.281 35.8198C169.123 34.3234 168.543 32.4649 168.543 30.2443C168.543 27.1065 169.774 24.5722 172.236 22.6413C174.698 20.7103 178.126 19.7449 182.518 19.7449C186.911 19.7449 190.314 20.7345 192.728 22.7137C195.142 24.6929 196.542 27.3962 196.928 30.8236H189.542C189.349 29.3754 188.601 28.241 187.297 27.4203C185.994 26.5514 184.377 26.1169 182.446 26.1169C180.467 26.1169 178.898 26.5031 177.739 27.2755C176.581 27.9996 176.001 28.9651 176.001 30.1719C176.001 32.7786 178.801 34.3716 184.401 34.9509C187.056 35.2406 189.421 35.7474 191.497 36.4715C193.573 37.1473 195.214 38.2335 196.421 39.73C197.628 41.1781 198.231 43.2298 198.231 45.8848C198.28 48.0571 197.652 50.0121 196.349 51.75C195.094 53.4878 193.332 54.8636 191.063 55.8773C188.842 56.891 186.235 57.3979 183.242 57.3979Z" fill="#111111"/>
<path d="M223.039 56.529C219.516 56.529 216.716 55.6842 214.64 53.9947C212.564 52.2568 211.526 49.1915 211.526 44.7986V27.1307H202.475V20.6138H207.833C210.295 20.6138 211.744 19.407 212.178 16.9933L213.264 11.2005H219.202V20.6138H233.394V27.1307H219.202V44.6538C219.202 46.5365 219.612 47.864 220.433 48.6363C221.302 49.3604 222.774 49.7225 224.85 49.7225H233.249V56.529H223.039Z" fill="#111111"/>
<path d="M239.159 56.529V49.8673H247.92V29.665C247.92 28.072 247.148 27.2755 245.603 27.2755H239.883V20.6138H248.499C250.479 20.6138 252.096 21.1931 253.351 22.3516C254.606 23.4619 255.234 25.0308 255.234 27.0583V27.9272H255.596C256.127 25.2239 257.261 23.1964 258.999 21.8448C260.785 20.4448 263.368 19.7449 266.747 19.7449H272.322V27.8548H264.502C261.654 27.8548 259.457 28.8444 257.913 30.8236C256.368 32.8028 255.596 35.1681 255.596 37.9197V49.8673H266.747V56.529H239.159Z" fill="#111111"/>
<path d="M288.296 57.3979C283.952 57.3979 280.645 56.0704 278.376 53.4154C276.156 50.7121 275.045 46.802 275.045 41.685V20.6138H282.721V40.7437C282.721 43.6883 283.348 46.0055 284.604 47.695C285.907 49.3363 287.886 50.1569 290.541 50.1569C293.196 50.1569 295.417 49.2639 297.203 47.4778C298.989 45.6917 299.882 43.1091 299.882 39.73V20.6138H307.557V56.529H300.896L300.244 51.1707H299.882C298.917 52.9085 297.42 54.3808 295.393 55.5877C293.365 56.7945 291 57.3979 288.296 57.3979Z" fill="#111111"/>
<path d="M328.166 57.3979C324.835 57.3979 321.842 56.6255 319.187 55.0808C316.58 53.5361 314.529 51.3638 313.032 48.5639C311.536 45.7158 310.788 42.385 310.788 38.5714C310.788 34.7578 311.536 31.4511 313.032 28.6513C314.577 25.8514 316.653 23.6791 319.26 22.1344C321.866 20.5414 324.835 19.7449 328.166 19.7449C332.752 19.7449 336.445 20.9034 339.245 23.2206C342.093 25.4894 343.903 28.6271 344.675 32.6338H336.638C336.155 30.896 335.166 29.5202 333.669 28.5065C332.221 27.4927 330.362 26.9859 328.093 26.9859C326.452 26.9859 324.883 27.4203 323.387 28.2892C321.939 29.1581 320.756 30.4615 319.839 32.1993C318.97 33.8889 318.535 36.0129 318.535 38.5714C318.535 41.0816 318.97 43.2056 319.839 44.9435C320.756 46.6813 321.939 48.0088 323.387 48.926C324.883 49.7949 326.452 50.2294 328.093 50.2294C330.411 50.2294 332.269 49.7225 333.669 48.7088C335.069 47.695 336.059 46.2951 336.638 44.509H344.675C343.71 48.4674 341.827 51.6051 339.027 53.9223C336.228 56.2394 332.607 57.3979 328.166 57.3979Z" fill="#111111"/>
<path d="M367.746 56.529C364.222 56.529 361.422 55.6842 359.346 53.9947C357.27 52.2568 356.233 49.1915 356.233 44.7986V27.1307H347.181V20.6138H352.54C355.002 20.6138 356.45 19.407 356.884 16.9933L357.97 11.2005H363.908V20.6138H378.1V27.1307H363.908V44.6538C363.908 46.5365 364.318 47.864 365.139 48.6363C366.008 49.3604 367.48 49.7225 369.556 49.7225H377.955V56.529H367.746Z" fill="#111111"/>
</svg>
