<svg width="630" height="101" viewBox="0 0 630 101" fill="none" xmlns="http://www.w3.org/2000/svg">
<path d="M50.9089 0.0449219V10.319H19.976C4.39883 9.65626 -6.87495 29.4245 6.16702 44.0137C19.209 58.603 23.6219 63.3467 23.6219 63.3467H41.6292L15.3362 34.1815C12.508 31.0882 15.2258 24.0179 19.976 24.0179H72.4512L50.9089 0.0449219Z" fill="#111111"/>
<path d="M27.8274 100.045L27.8274 89.7711L58.7604 89.7711C74.3375 90.4338 85.6113 70.6656 72.5693 56.0764C59.5273 41.4871 55.1144 36.7434 55.1144 36.7434L37.1072 36.7434L63.4001 65.9086C66.2283 69.0018 63.5105 76.0722 58.7604 76.0722L6.28512 76.0722L27.8274 100.045Z" fill="#111111"/>
<path d="M123.622 94.215C115.738 94.215 109.462 92.3645 104.796 88.6636C100.129 84.9627 97.4742 80.0549 96.8306 73.9403H109.985C110.468 76.7562 111.876 79.0492 114.209 80.8192C116.623 82.5892 119.801 83.4742 123.743 83.4742C127.524 83.4742 130.421 82.7099 132.432 81.1813C134.524 79.5721 135.57 77.7217 135.57 75.6298C135.57 72.5725 134.323 70.4807 131.829 69.3543C129.415 68.2279 125.835 67.3831 121.088 66.82C116.985 66.3372 113.243 65.412 109.864 64.0442C106.566 62.5961 103.951 60.6651 102.02 58.2515C100.089 55.7573 99.1235 52.6598 99.1235 48.9589C99.1235 43.7293 101.175 39.5054 105.278 36.2871C109.382 33.0689 115.094 31.4598 122.415 31.4598C129.737 31.4598 135.409 33.1092 139.432 36.4078C143.454 39.7065 145.788 44.212 146.431 49.9243H134.122C133.8 47.5107 132.553 45.62 130.38 44.2522C128.208 42.804 125.513 42.0799 122.295 42.0799C118.996 42.0799 116.381 42.7236 114.45 44.0109C112.519 45.2177 111.554 46.8268 111.554 48.8382C111.554 53.1828 116.22 55.8378 125.553 56.8033C129.978 57.286 133.921 58.1308 137.38 59.3376C140.84 60.464 143.575 62.2742 145.587 64.7683C147.598 67.182 148.604 70.6014 148.604 75.0264C148.684 78.6469 147.638 81.9054 145.466 84.8017C143.374 87.6981 140.437 89.9911 136.656 91.6807C132.955 93.3702 128.61 94.215 123.622 94.215Z" fill="#111111"/>
<path d="M178.124 94.215C170.883 94.215 165.372 92.0025 161.59 87.5775C157.889 83.072 156.039 76.5551 156.039 68.0268V32.908H168.831V66.4579C168.831 71.3657 169.877 75.2276 171.969 78.0435C174.141 80.779 177.44 82.1467 181.865 82.1467C186.29 82.1467 189.991 80.6583 192.968 77.6814C195.945 74.7046 197.433 70.4002 197.433 64.7683V32.908H210.226V92.7668H199.123L198.037 83.8363H197.433C195.824 86.7327 193.33 89.1866 189.951 91.1979C186.572 93.2093 182.629 94.215 178.124 94.215Z" fill="#111111"/>
<path d="M246.987 94.215C242.562 94.215 238.821 93.33 235.763 91.56C232.786 89.7095 230.493 87.1752 228.884 83.957H228.16L227.074 92.7668H216.092V5.875H228.884V40.6317C230.332 38.2181 232.625 36.086 235.763 34.2355C238.901 32.3851 242.642 31.4598 246.987 31.4598C251.975 31.4598 256.44 32.6666 260.383 35.0803C264.325 37.4135 267.422 40.9133 269.675 45.5797C272.008 50.2462 273.175 55.9987 273.175 62.8374C273.175 69.6761 272.008 75.4287 269.675 80.0951C267.422 84.7615 264.325 88.3016 260.383 90.7152C256.44 93.0484 251.975 94.215 246.987 94.215ZM244.332 82.026C248.918 82.026 252.699 80.4572 255.676 77.3194C258.733 74.1012 260.262 69.3141 260.262 62.9581C260.262 56.5217 258.733 51.6943 255.676 48.4761C252.699 45.2579 248.918 43.6488 244.332 43.6488C239.746 43.6488 235.924 45.2579 232.867 48.4761C229.89 51.6139 228.402 56.401 228.402 62.8374C228.402 69.1934 229.89 73.9805 232.867 77.1987C235.924 80.4169 239.746 82.026 244.332 82.026Z" fill="#111111"/>
<path d="M304.505 94.215C296.621 94.215 290.345 92.3645 285.679 88.6636C281.012 84.9627 278.357 80.0549 277.714 73.9403H290.868C291.351 76.7562 292.759 79.0492 295.092 80.8192C297.506 82.5892 300.684 83.4742 304.626 83.4742C308.408 83.4742 311.304 82.7099 313.315 81.1813C315.407 79.5721 316.453 77.7217 316.453 75.6298C316.453 72.5725 315.206 70.4807 312.712 69.3543C310.298 68.2279 306.718 67.3831 301.971 66.82C297.868 66.3372 294.127 65.412 290.748 64.0442C287.449 62.5961 284.834 60.6651 282.903 58.2515C280.972 55.7573 280.007 52.6598 280.007 48.9589C280.007 43.7293 282.058 39.5054 286.162 36.2871C290.265 33.0689 295.977 31.4598 303.299 31.4598C310.62 31.4598 316.292 33.1092 320.315 36.4078C324.338 39.7065 326.671 44.212 327.315 49.9243H315.005C314.683 47.5107 313.436 45.62 311.264 44.2522C309.091 42.804 306.396 42.0799 303.178 42.0799C299.879 42.0799 297.264 42.7236 295.334 44.0109C293.403 45.2177 292.437 46.8268 292.437 48.8382C292.437 53.1828 297.104 55.8378 306.436 56.8033C310.861 57.286 314.804 58.1308 318.263 59.3376C321.723 60.464 324.458 62.2742 326.47 64.7683C328.481 67.182 329.487 70.6014 329.487 75.0264C329.567 78.6469 328.521 81.9054 326.349 84.8017C324.257 87.6981 321.321 89.9911 317.539 91.6807C313.838 93.3702 309.494 94.215 304.505 94.215Z" fill="#111111"/>
<path d="M370.834 92.7668C364.961 92.7668 360.294 91.3589 356.835 88.5429C353.375 85.6465 351.645 80.5376 351.645 73.2162V43.7695H336.56V32.908H345.491C349.594 32.908 352.007 30.8966 352.732 26.8739L354.542 17.2192H364.438V32.908H388.092V43.7695H364.438V72.9748C364.438 76.1126 365.122 78.3251 366.489 79.6124C367.938 80.8192 370.391 81.4226 373.851 81.4226H387.85V92.7668H370.834Z" fill="#111111"/>
<path d="M397.699 92.7668V81.664H412.302V47.9934C412.302 45.3384 411.015 44.0109 408.44 44.0109H398.906V32.908H413.267C416.566 32.908 419.261 33.8735 421.353 35.8044C423.445 37.6549 424.491 40.2697 424.491 43.6488V45.097H425.094C425.979 40.5915 427.87 37.2124 430.766 34.9596C433.743 32.6264 438.048 31.4598 443.679 31.4598H452.972V44.9763H439.938C435.191 44.9763 431.531 46.6257 428.956 49.9243C426.382 53.223 425.094 57.1653 425.094 61.7513V81.664H443.679V92.7668H397.699Z" fill="#111111"/>
<path d="M479.596 94.215C472.355 94.215 466.844 92.0025 463.062 87.5775C459.361 83.072 457.511 76.5551 457.511 68.0268V32.908H470.303V66.4579C470.303 71.3657 471.349 75.2276 473.441 78.0435C475.613 80.779 478.912 82.1467 483.337 82.1467C487.762 82.1467 491.463 80.6583 494.44 77.6814C497.417 74.7046 498.905 70.4002 498.905 64.7683V32.908H511.698V92.7668H500.595L499.509 83.8363H498.905C497.296 86.7327 494.802 89.1866 491.423 91.1979C488.044 93.2093 484.101 94.215 479.596 94.215Z" fill="#111111"/>
<path d="M546.045 94.215C540.494 94.215 535.505 92.9277 531.08 90.3532C526.736 87.7786 523.316 84.1581 520.822 79.4917C518.328 74.7448 517.081 69.1934 517.081 62.8374C517.081 56.4814 518.328 50.9702 520.822 46.3038C523.397 41.6374 526.856 38.0169 531.201 35.4424C535.546 32.7873 540.494 31.4598 546.045 31.4598C553.688 31.4598 559.843 33.3907 564.51 37.2526C569.256 41.034 572.274 46.2636 573.561 52.9414H560.165C559.36 50.045 557.711 47.752 555.217 46.0625C552.803 44.3729 549.706 43.5281 545.924 43.5281C543.189 43.5281 540.574 44.2522 538.08 45.7004C535.666 47.1486 533.695 49.3209 532.167 52.2173C530.718 55.0332 529.994 58.5733 529.994 62.8374C529.994 67.0211 530.718 70.5611 532.167 73.4575C533.695 76.3539 535.666 78.5664 538.08 80.0951C540.574 81.5433 543.189 82.2674 545.924 82.2674C549.786 82.2674 552.884 81.4226 555.217 79.7331C557.55 78.0435 559.2 75.7103 560.165 72.7334H573.561C571.952 79.3308 568.814 84.5604 564.148 88.4222C559.481 92.2841 553.447 94.215 546.045 94.215Z" fill="#111111"/>
<path d="M612.012 92.7668C606.138 92.7668 601.472 91.3589 598.012 88.5429C594.553 85.6465 592.823 80.5376 592.823 73.2162V43.7695H577.738V32.908H586.668C590.771 32.908 593.185 30.8966 593.909 26.8739L595.719 17.2192H605.615V32.908H629.269V43.7695H605.615V72.9748C605.615 76.1126 606.299 78.3251 607.667 79.6124C609.115 80.8192 611.569 81.4226 615.029 81.4226H629.028V92.7668H612.012Z" fill="#111111"/>
</svg>
