<svg width="343" height="60" viewBox="0 0 343 60" fill="none" xmlns="http://www.w3.org/2000/svg">
<path d="M27.9661 0.141212C27.7064 -0.147554 27.2273 0.0361753 27.2273 0.424564V7.23318L12.122 7.23318V7.24594C12.0463 7.24936 11.9707 7.25347 11.8954 7.25824C7.96072 7.50763 4.52641 9.599 2.44519 12.6796C1.50075 14.0776 0.834938 15.6793 0.527456 17.405C0.401287 18.1131 0.335449 18.8421 0.335449 19.5864C0.335449 19.733 0.338002 19.879 0.343066 20.0243C0.343952 20.0498 0.344916 20.0752 0.345956 20.1006C0.347616 20.1412 0.349473 20.1817 0.351523 20.2221C0.479518 22.7472 1.3657 25.0722 2.78696 26.974C3.23723 27.5766 3.74124 28.1367 4.29183 28.6472L13.0238 38.3553C13.2247 38.5787 13.511 38.7062 13.8114 38.7062H25.5939C26.1441 38.7062 26.4344 38.0547 26.0665 37.6456L10.6922 20.5526C10.5506 20.2606 10.4712 19.9328 10.4712 19.5864C10.4712 18.5187 11.2259 17.6272 12.231 17.4162L12.2364 17.405L42.0661 17.405C42.6162 17.405 42.9065 16.7534 42.5386 16.3444L34.3436 7.23318L34.3449 7.23318L27.9661 0.141212Z" fill="#111111"/>
<path d="M16.9252 59.8588C17.1849 60.1476 17.6639 59.9638 17.6639 59.5754L17.6639 52.7668L32.7692 52.7668V52.7541C36.7985 52.5721 40.325 50.46 42.4461 47.3204C43.3905 45.9224 44.0563 44.3207 44.3638 42.595C44.49 41.8869 44.5558 41.1579 44.5558 40.4136C44.5558 40.267 44.5533 40.121 44.5482 39.9757C44.5473 39.9502 44.5464 39.9248 44.5453 39.8994C44.5437 39.8588 44.5418 39.8183 44.5398 39.7779C44.4118 37.2528 43.5256 34.9278 42.1043 33.026C41.6541 32.4234 41.15 31.8633 40.5995 31.3528L31.8675 21.6447C31.6666 21.4213 31.3803 21.2938 31.0799 21.2938L19.2974 21.2938C18.7472 21.2938 18.4569 21.9453 18.8248 22.3544L34.1991 39.4474C34.3407 39.7394 34.4201 40.0672 34.4201 40.4136C34.4201 41.4813 33.6654 42.3728 32.6603 42.5838L32.6549 42.595L2.82522 42.595C2.27505 42.595 1.98476 43.2466 2.35267 43.6556L10.5477 52.7668L10.5464 52.7668L16.9252 59.8588Z" fill="#111111"/>
<path fill-rule="evenodd" clip-rule="evenodd" d="M28.6734 8.67924L12.4374 8.67924L12.1873 8.69053C12.1203 8.69356 12.0535 8.69718 11.9868 8.70141C8.51619 8.92138 5.48342 10.7656 3.64343 13.4891C2.80944 14.7236 2.22228 16.1366 1.95109 17.6586C1.83978 18.2834 1.78151 18.9275 1.78151 19.5864C1.78151 19.7162 1.78377 19.8454 1.78825 19.974C1.78903 19.9965 1.78989 20.019 1.79081 20.0415C1.79227 20.0773 1.79392 20.1132 1.79573 20.1489C1.90873 22.3781 2.69028 24.429 3.9453 26.1084C4.34309 26.6407 4.78844 27.1356 5.275 27.5868L5.3231 27.6314L13.9837 37.2602H23.7748L9.48026 21.3675L9.39101 21.1835C9.15616 20.6991 9.02516 20.156 9.02516 19.5864C9.02516 18.0956 9.91464 16.8148 11.1913 16.2424L11.3278 15.9589L40.247 15.9589L31.0874 5.77531L31.0887 5.77531L28.6734 3.08998V8.67924ZM34.3449 7.23318L34.3436 7.23318L42.5386 16.3444C42.9065 16.7534 42.6162 17.405 42.0661 17.405L12.2364 17.405L12.231 17.4162C11.2259 17.6272 10.4712 18.5187 10.4712 19.5864C10.4712 19.9328 10.5506 20.2606 10.6922 20.5526L26.0665 37.6456C26.4344 38.0547 26.1441 38.7062 25.5939 38.7062H13.8114C13.511 38.7062 13.2247 38.5787 13.0238 38.3553L4.29183 28.6472C3.74124 28.1367 3.23723 27.5766 2.78696 26.974C1.3657 25.0722 0.479518 22.7472 0.351523 20.2221C0.349473 20.1817 0.347616 20.1412 0.345956 20.1006C0.344916 20.0752 0.343952 20.0498 0.343066 20.0243C0.338002 19.879 0.335449 19.733 0.335449 19.5864C0.335449 18.8421 0.401287 18.1131 0.527456 17.405C0.834938 15.6793 1.50075 14.0776 2.44519 12.6796C4.52641 9.599 7.96072 7.50763 11.8954 7.25824C11.9707 7.25347 12.0463 7.24936 12.122 7.24594V7.23318L27.2273 7.23318V0.424564C27.2273 0.0361753 27.7064 -0.147554 27.9661 0.141212L34.3449 7.23318ZM16.2179 51.3208L32.4538 51.3208L32.704 51.3095C36.2586 51.149 39.3726 49.2866 41.2479 46.5109C42.0818 45.2764 42.669 43.8634 42.9402 42.3414C43.0515 41.7166 43.1098 41.0725 43.1098 40.4136C43.1098 40.2838 43.1075 40.1546 43.103 40.026C43.1026 40.0136 43.1022 40.0013 43.1017 39.9889C43.1013 39.9788 43.1009 39.9687 43.1005 39.9585C43.099 39.9227 43.0974 39.8869 43.0956 39.8511C42.9826 37.6219 42.201 35.571 40.946 33.8916C40.5482 33.3593 40.1028 32.8644 39.6163 32.4132L39.5682 32.3686L30.9076 22.7398L21.1165 22.7398L35.411 38.6325L35.5003 38.8165C35.7351 39.3009 35.8661 39.844 35.8661 40.4136C35.8661 41.9044 34.9766 43.1852 33.7 43.7577L33.5634 44.0411L4.64432 44.0411L13.8054 54.2264L13.8041 54.2264L16.2179 56.91L16.2179 51.3208ZM10.5477 52.7683L10.547 52.7675L10.5464 52.7668L10.5477 52.7668L10.5471 52.7662L10.5464 52.7653L2.35267 43.6556C1.98476 43.2466 2.27505 42.595 2.82522 42.595L32.6549 42.595L32.6603 42.5838C33.6654 42.3728 34.4201 41.4813 34.4201 40.4136C34.4201 40.0672 34.3407 39.7394 34.1991 39.4474L18.8248 22.3544C18.4569 21.9453 18.7472 21.2938 19.2974 21.2938L31.0799 21.2938C31.3803 21.2938 31.6666 21.4213 31.8675 21.6447L40.5995 31.3528C41.1501 31.8633 41.6541 32.4234 42.1043 33.026C43.5256 34.9278 44.4118 37.2528 44.5398 39.7779C44.5418 39.8183 44.5437 39.8588 44.5453 39.8994L44.547 39.9422L44.5482 39.9757C44.5533 40.121 44.5558 40.267 44.5558 40.4136C44.5558 41.1579 44.49 41.8869 44.3638 42.595C44.0563 44.3207 43.3905 45.9224 42.4461 47.3204C40.325 50.46 36.7985 52.5721 32.7692 52.7541V52.7668L17.6639 52.7668L17.6639 59.5754C17.6639 59.9638 17.1849 60.1476 16.9252 59.8588L10.5477 52.7683Z" fill="white"/>
<path d="M69.8475 53.8166C65.5961 53.8166 62.2123 52.8188 59.6962 50.8232C57.18 48.8277 55.7484 46.1814 55.4014 42.8844H62.4943C62.7546 44.4027 63.5138 45.6391 64.7718 46.5935C66.0733 47.5479 67.7869 48.0251 69.9126 48.0251C71.9515 48.0251 73.5133 47.613 74.5978 46.7887C75.7257 45.9211 76.2897 44.9233 76.2897 43.7954C76.2897 42.1469 75.6173 41.0189 74.2724 40.4116C72.971 39.8042 71.0405 39.3487 68.481 39.0451C66.2685 38.7848 64.2513 38.2859 62.4292 37.5484C60.6506 36.7675 59.2407 35.7264 58.1995 34.4249C57.1583 33.0801 56.6377 31.4099 56.6377 29.4143C56.6377 26.5945 57.744 24.3169 59.9565 22.5817C62.1689 20.8464 65.249 19.9788 69.1968 19.9788C73.1445 19.9788 76.2029 20.8681 78.372 22.6467C80.5411 24.4254 81.7992 26.8548 82.1462 29.9349H75.5088C75.3353 28.6334 74.6629 27.614 73.4916 26.8765C72.3203 26.0956 70.867 25.7052 69.1317 25.7052C67.3531 25.7052 65.9431 26.0522 64.902 26.7463C63.8608 27.3971 63.3402 28.2647 63.3402 29.3492C63.3402 31.6919 65.8564 33.1235 70.8887 33.644C73.2747 33.9043 75.4004 34.3598 77.2658 35.0106C79.1312 35.6179 80.6062 36.594 81.6907 37.9388C82.7753 39.2403 83.3176 41.084 83.3176 43.47C83.3609 45.4222 82.797 47.1792 81.6257 48.7409C80.4977 50.3026 78.9143 51.539 76.8754 52.45C74.8798 53.3611 72.5372 53.8166 69.8475 53.8166Z" fill="#111111"/>
<path d="M99.2349 53.8166C95.3306 53.8166 92.3589 52.6236 90.32 50.2376C88.3244 47.8082 87.3266 44.2943 87.3266 39.6958V20.7596H94.2243V38.8498C94.2243 41.4961 94.7883 43.5785 95.9162 45.0968C97.0875 46.5718 98.8662 47.3093 101.252 47.3093C103.638 47.3093 105.634 46.5067 107.239 44.9016C108.844 43.2965 109.647 40.9756 109.647 37.9388V20.7596H116.544V53.0357H110.558L109.972 48.2203H109.647C108.779 49.7821 107.434 51.1052 105.612 52.1898C103.79 53.2743 101.664 53.8166 99.2349 53.8166Z" fill="#111111"/>
<path d="M136.366 53.8166C133.98 53.8166 131.963 53.3394 130.314 52.385C128.709 51.3872 127.473 50.0207 126.605 48.2854H126.215L125.629 53.0357H119.707V6.18335H126.605V24.9243C127.386 23.6228 128.622 22.4732 130.314 21.4754C132.006 20.4777 134.023 19.9788 136.366 19.9788C139.056 19.9788 141.463 20.6295 143.589 21.9309C145.715 23.189 147.385 25.0761 148.6 27.5923C149.858 30.1084 150.487 33.2102 150.487 36.8977C150.487 40.5851 149.858 43.6869 148.6 46.2031C147.385 48.7192 145.715 50.628 143.589 51.9295C141.463 53.1875 139.056 53.8166 136.366 53.8166ZM134.934 47.2442C137.407 47.2442 139.446 46.3983 141.051 44.7064C142.7 42.9711 143.524 40.3899 143.524 36.9627C143.524 33.4922 142.7 30.8893 141.051 29.154C139.446 27.4187 137.407 26.5511 134.934 26.5511C132.462 26.5511 130.401 27.4187 128.753 29.154C127.147 30.8459 126.345 33.4271 126.345 36.8977C126.345 40.3248 127.147 42.906 128.753 44.6413C130.401 46.3766 132.462 47.2442 134.934 47.2442Z" fill="#111111"/>
<path d="M167.38 53.8166C163.129 53.8166 159.745 52.8188 157.229 50.8232C154.713 48.8277 153.281 46.1814 152.934 42.8844H160.027C160.287 44.4027 161.047 45.6391 162.305 46.5935C163.606 47.5479 165.32 48.0251 167.445 48.0251C169.484 48.0251 171.046 47.613 172.131 46.7887C173.259 45.9211 173.822 44.9233 173.822 43.7954C173.822 42.1469 173.15 41.0189 171.805 40.4116C170.504 39.8042 168.573 39.3487 166.014 39.0451C163.801 38.7848 161.784 38.2859 159.962 37.5484C158.183 36.7675 156.773 35.7264 155.732 34.4249C154.691 33.0801 154.171 31.4099 154.171 29.4143C154.171 26.5945 155.277 24.3169 157.489 22.5817C159.702 20.8464 162.782 19.9788 166.73 19.9788C170.677 19.9788 173.736 20.8681 175.905 22.6467C178.074 24.4254 179.332 26.8548 179.679 29.9349H173.042C172.868 28.6334 172.196 27.614 171.024 26.8765C169.853 26.0956 168.4 25.7052 166.664 25.7052C164.886 25.7052 163.476 26.0522 162.435 26.7463C161.394 27.3971 160.873 28.2647 160.873 29.3492C160.873 31.6919 163.389 33.1235 168.421 33.644C170.807 33.9043 172.933 34.3598 174.799 35.0106C176.664 35.6179 178.139 36.594 179.224 37.9388C180.308 39.2403 180.85 41.084 180.85 43.47C180.894 45.4222 180.33 47.1792 179.158 48.7409C178.031 50.3026 176.447 51.539 174.408 52.45C172.413 53.3611 170.07 53.8166 167.38 53.8166Z" fill="#111111"/>
<path d="M203.145 53.0357C199.978 53.0357 197.462 52.2765 195.596 50.7582C193.731 49.1964 192.798 46.4417 192.798 42.4939V26.6162H184.664V20.7596H189.48C191.692 20.7596 192.994 19.6751 193.384 17.506L194.36 12.3002H199.696V20.7596H212.45V26.6162H199.696V42.3638C199.696 44.0557 200.065 45.2487 200.802 45.9428C201.583 46.5935 202.906 46.9189 204.772 46.9189H212.32V53.0357H203.145Z" fill="#111111"/>
<path d="M217.631 53.0357V47.049H225.504V28.8937C225.504 27.4621 224.81 26.7463 223.422 26.7463H218.281V20.7596H226.025C227.804 20.7596 229.257 21.2802 230.385 22.3214C231.513 23.3192 232.077 24.7291 232.077 26.5511V27.332H232.402C232.879 24.9026 233.899 23.0806 235.461 21.8659C237.066 20.6078 239.387 19.9788 242.423 19.9788H247.434V27.2669H240.406C237.847 27.2669 235.873 28.1562 234.484 29.9349C233.096 31.7135 232.402 33.8392 232.402 36.312V47.049H242.423V53.0357H217.631Z" fill="#111111"/>
<path d="M261.79 53.8166C257.885 53.8166 254.914 52.6236 252.875 50.2376C250.879 47.8082 249.881 44.2943 249.881 39.6958V20.7596H256.779V38.8498C256.779 41.4961 257.343 43.5785 258.471 45.0968C259.642 46.5718 261.421 47.3093 263.807 47.3093C266.193 47.3093 268.188 46.5067 269.794 44.9016C271.399 43.2965 272.201 40.9756 272.201 37.9388V20.7596H279.099V53.0357H273.112L272.527 48.2203H272.201C271.334 49.7821 269.989 51.1052 268.167 52.1898C266.345 53.2743 264.219 53.8166 261.79 53.8166Z" fill="#111111"/>
<path d="M297.619 53.8166C294.626 53.8166 291.936 53.1225 289.55 51.7342C287.208 50.346 285.364 48.3938 284.019 45.8777C282.674 43.3182 282.002 40.3248 282.002 36.8977C282.002 33.4705 282.674 30.4989 284.019 27.9827C285.407 25.4666 287.273 23.5144 289.615 22.1262C291.958 20.6946 294.626 19.9788 297.619 19.9788C301.741 19.9788 305.059 21.0199 307.575 23.1023C310.135 25.1412 311.762 27.961 312.456 31.5617H305.233C304.799 30 303.91 28.7636 302.565 27.8526C301.263 26.9415 299.593 26.486 297.554 26.486C296.079 26.486 294.669 26.8765 293.324 27.6573C292.023 28.4382 290.96 29.6095 290.136 31.1713C289.355 32.6896 288.965 34.5984 288.965 36.8977C288.965 39.1535 289.355 41.0623 290.136 42.6241C290.96 44.1858 292.023 45.3788 293.324 46.2031C294.669 46.9839 296.079 47.3744 297.554 47.3744C299.636 47.3744 301.307 46.9189 302.565 46.0078C303.823 45.0968 304.712 43.8388 305.233 42.2336H312.456C311.588 45.7909 309.896 48.6108 307.38 50.6931C304.864 52.7754 301.61 53.8166 297.619 53.8166Z" fill="#111111"/>
<path d="M333.189 53.0357C330.022 53.0357 327.506 52.2765 325.64 50.7582C323.775 49.1964 322.842 46.4417 322.842 42.4939V26.6162H314.708V20.7596H319.523C321.736 20.7596 323.037 19.6751 323.428 17.506L324.404 12.3002H329.74V20.7596H342.494V26.6162H329.74V42.3638C329.74 44.0557 330.108 45.2487 330.846 45.9428C331.627 46.5935 332.95 46.9189 334.815 46.9189H342.364V53.0357H333.189Z" fill="#111111"/>
</svg>
