<svg width="1888" height="301" viewBox="0 0 1888 301" fill="none" xmlns="http://www.w3.org/2000/svg">
<path d="M152.183 0.895996V31.7181H59.384C12.6525 29.73 -21.1688 89.0346 17.9571 132.802C57.083 176.57 70.3219 190.801 70.3219 190.801H124.344L45.4646 103.306C36.9802 94.026 45.1335 72.8149 59.384 72.8149H216.81L152.183 0.895996Z" fill="#111111"/>
<path d="M82.9383 300.897L82.9383 270.075L175.737 270.075C222.469 272.063 256.29 212.758 217.164 168.99C178.038 125.223 164.799 110.991 164.799 110.991L110.778 110.991L189.656 198.487C198.141 207.767 189.988 228.978 175.737 228.978L18.3114 228.978L82.9383 300.897Z" fill="#111111"/>
<path d="M370.323 283.406C346.669 283.406 327.842 277.855 313.843 266.752C299.844 255.649 291.879 240.926 289.948 222.582H329.411C330.859 231.03 335.083 237.909 342.083 243.219C349.324 248.529 358.858 251.184 370.685 251.184C382.029 251.184 390.718 248.891 396.752 244.305C403.028 239.478 406.166 233.926 406.166 227.651C406.166 218.479 402.424 212.203 394.942 208.824C387.701 205.445 376.96 202.911 362.72 201.221C350.41 199.773 339.186 196.997 329.049 192.894C319.153 188.549 311.309 182.757 305.516 175.516C299.723 168.033 296.827 158.741 296.827 147.638C296.827 131.949 302.982 119.277 315.291 109.623C327.601 99.968 344.738 95.1407 366.702 95.1407C388.667 95.1407 405.683 100.089 417.751 109.985C429.819 119.881 436.819 133.397 438.75 150.534H401.821C400.856 143.293 397.114 137.621 390.597 133.518C384.081 129.173 375.995 127.001 366.34 127.001C356.444 127.001 348.6 128.932 342.807 132.794C337.014 136.414 334.118 141.242 334.118 147.276C334.118 160.31 348.117 168.275 376.115 171.171C389.391 172.619 401.218 175.154 411.596 178.774C421.975 182.153 430.182 187.584 436.216 195.066C442.25 202.307 445.267 212.565 445.267 225.84C445.508 236.702 442.371 246.477 435.854 255.166C429.578 263.856 420.768 270.735 409.424 275.803C398.321 280.872 385.287 283.406 370.323 283.406Z" fill="#111111"/>
<path d="M533.828 283.406C512.105 283.406 495.571 276.769 484.227 263.494C473.124 249.977 467.573 230.426 467.573 204.842V99.4853H505.95V200.135C505.95 214.858 509.088 226.444 515.363 234.892C521.88 243.098 531.776 247.201 545.051 247.201C558.326 247.201 569.429 242.736 578.36 233.806C587.29 224.875 591.755 211.962 591.755 195.066V99.4853H630.133V279.062H596.824L593.566 252.27H591.755C586.928 260.959 579.446 268.321 569.308 274.355C559.171 280.389 547.344 283.406 533.828 283.406Z" fill="#111111"/>
<path d="M740.416 283.406C727.141 283.406 715.918 280.751 706.746 275.441C697.815 269.89 690.936 262.287 686.109 252.632H683.937L680.678 279.062H647.732V18.3862H686.109V122.656C690.453 115.415 697.332 109.019 706.746 103.468C716.159 97.9164 727.383 95.1407 740.416 95.1407C755.381 95.1407 768.777 98.7612 780.604 106.002C792.431 113.002 801.723 123.501 808.482 137.5C815.481 151.5 818.981 168.757 818.981 189.273C818.981 209.79 815.481 227.047 808.482 241.047C801.723 255.046 792.431 265.666 780.604 272.907C768.777 279.906 755.381 283.406 740.416 283.406ZM732.451 246.839C746.209 246.839 757.553 242.133 766.484 232.719C775.656 223.065 780.242 208.703 780.242 189.636C780.242 170.326 775.656 155.844 766.484 146.19C757.553 136.535 746.209 131.708 732.451 131.708C718.693 131.708 707.228 136.535 698.057 146.19C689.126 155.603 684.661 169.964 684.661 189.273C684.661 208.341 689.126 222.703 698.057 232.357C707.228 242.012 718.693 246.839 732.451 246.839Z" fill="#111111"/>
<path d="M912.972 283.406C889.318 283.406 870.492 277.855 856.493 266.752C842.493 255.649 834.528 240.926 832.597 222.582H872.061C873.509 231.03 877.733 237.909 884.733 243.219C891.974 248.529 901.507 251.184 913.334 251.184C924.679 251.184 933.368 248.891 939.402 244.305C945.677 239.478 948.815 233.926 948.815 227.651C948.815 218.479 945.074 212.203 937.592 208.824C930.351 205.445 919.61 202.911 905.369 201.221C893.06 199.773 881.836 196.997 871.699 192.894C861.803 188.549 853.958 182.757 848.166 175.516C842.373 168.033 839.476 158.741 839.476 147.638C839.476 131.949 845.631 119.277 857.941 109.623C870.251 99.968 887.388 95.1407 909.352 95.1407C931.316 95.1407 948.333 100.089 960.401 109.985C972.469 119.881 979.469 133.397 981.4 150.534H944.471C943.505 143.293 939.764 137.621 933.247 133.518C926.73 129.173 918.644 127.001 908.99 127.001C899.094 127.001 891.249 128.932 885.457 132.794C879.664 136.414 876.767 141.242 876.767 147.276C876.767 160.31 890.767 168.275 918.765 171.171C932.04 172.619 943.867 175.154 954.246 178.774C964.625 182.153 972.831 187.584 978.865 195.066C984.899 202.307 987.917 212.565 987.917 225.84C988.158 236.702 985.02 246.477 978.503 255.166C972.228 263.856 963.418 270.735 952.074 275.803C940.971 280.872 927.937 283.406 912.972 283.406Z" fill="#111111"/>
<path d="M1111.96 279.062C1094.34 279.062 1080.34 274.838 1069.96 266.39C1059.58 257.701 1054.39 242.374 1054.39 220.41V132.07H1009.14V99.4853H1035.93C1048.24 99.4853 1055.48 93.4511 1057.65 81.3828L1063.08 52.4189H1092.77V99.4853H1163.73V132.07H1092.77V219.686C1092.77 229.099 1094.82 235.736 1098.92 239.598C1103.27 243.219 1110.63 245.029 1121.01 245.029H1163.01V279.062H1111.96Z" fill="#111111"/>
<path d="M1192.55 279.062V245.753H1236.36V144.741C1236.36 136.776 1232.5 132.794 1224.78 132.794H1196.17V99.4853H1239.26C1249.15 99.4853 1257.24 102.382 1263.52 108.174C1269.79 113.726 1272.93 121.57 1272.93 131.708V136.052H1274.74C1277.39 122.536 1283.07 112.398 1291.76 105.64C1300.69 98.6405 1313.6 95.1407 1330.49 95.1407H1358.37V135.69H1319.27C1305.03 135.69 1294.05 140.638 1286.32 150.534C1278.6 160.43 1274.74 172.257 1274.74 186.015V245.753H1330.49V279.062H1192.55Z" fill="#111111"/>
<path d="M1438.24 283.406C1416.52 283.406 1399.99 276.769 1388.64 263.494C1377.54 249.977 1371.99 230.426 1371.99 204.842V99.4853H1410.37V200.135C1410.37 214.858 1413.5 226.444 1419.78 234.892C1426.3 243.098 1436.19 247.201 1449.47 247.201C1462.74 247.201 1473.85 242.736 1482.78 233.806C1491.71 224.875 1496.17 211.962 1496.17 195.066V99.4853H1534.55V279.062H1501.24L1497.98 252.27H1496.17C1491.34 260.959 1483.86 268.321 1473.72 274.355C1463.59 280.389 1451.76 283.406 1438.24 283.406Z" fill="#111111"/>
<path d="M1637.59 283.406C1620.94 283.406 1605.97 279.544 1592.7 271.821C1579.66 264.097 1569.41 253.236 1561.92 239.236C1554.44 224.996 1550.7 208.341 1550.7 189.273C1550.7 170.206 1554.44 153.672 1561.92 139.673C1569.65 125.673 1580.03 114.812 1593.06 107.088C1606.09 99.1232 1620.94 95.1407 1637.59 95.1407C1660.52 95.1407 1678.99 100.933 1692.98 112.519C1707.23 123.863 1716.28 139.552 1720.14 159.585H1679.95C1677.54 150.896 1672.59 144.017 1665.11 138.949C1657.87 133.88 1648.57 131.346 1637.23 131.346C1629.02 131.346 1621.18 133.518 1613.7 137.862C1606.46 142.207 1600.54 148.724 1595.96 157.413C1591.61 165.861 1589.44 176.481 1589.44 189.273C1589.44 201.825 1591.61 212.445 1595.96 221.134C1600.54 229.823 1606.46 236.461 1613.7 241.047C1621.18 245.391 1629.02 247.563 1637.23 247.563C1648.81 247.563 1658.11 245.029 1665.11 239.96C1672.11 234.892 1677.05 227.892 1679.95 218.962H1720.14C1715.31 238.754 1705.9 254.442 1691.9 266.028C1677.9 277.613 1659.8 283.406 1637.59 283.406Z" fill="#111111"/>
<path d="M1835.49 279.062C1817.87 279.062 1803.87 274.838 1793.49 266.39C1783.11 257.701 1777.93 242.374 1777.93 220.41V132.07H1732.67V99.4853H1759.46C1771.77 99.4853 1779.01 93.4511 1781.18 81.3828L1786.61 52.4189H1816.3V99.4853H1887.26V132.07H1816.3V219.686C1816.3 229.099 1818.35 235.736 1822.46 239.598C1826.8 243.219 1834.16 245.029 1844.54 245.029H1886.54V279.062H1835.49Z" fill="#111111"/>
</svg>
